<?xml version="1.0" encoding="utf-8"?>
<!-- Generator: Adobe Illustrator 25.1.0, SVG Export Plug-In . SVG Version: 6.00 Build 0)  -->
<svg version="1.1" id="Layer_1" xmlns="http://www.w3.org/2000/svg" xmlns:xlink="http://www.w3.org/1999/xlink" x="0px" y="0px"
	 viewBox="0 0 16 16" style="enable-background:new 0 0 16 16;" xml:space="preserve">
<style type="text/css">
	.st0{fill:#7952B3;}
</style>
<path class="st0" d="M6.4,7.1V4.7h1.8c1,0,1.5,0.5,1.5,1.2c0,0.8-0.6,1.2-1.8,1.2H6.4z M6.4,10.9h1.9c1.2,0,1.8-0.5,1.8-1.4
	c0-0.9-0.6-1.3-1.9-1.3H6.4C6.4,8.2,6.4,10.9,6.4,10.9z"/>
<path class="st0" d="M4,0C1.8,0,0,1.8,0,4v8c0,2.2,1.8,4,4,4h8c2.2,0,4-1.8,4-4V4c0-2.2-1.8-4-4-4C12,0,4,0,4,0z M5.1,12V3.5h3.4
	C10,3.5,11,4.4,11,5.7c0,0.9-0.6,1.7-1.5,1.8v0.1c1.1,0.1,1.9,0.9,1.9,2c0,1.5-1.1,2.4-2.9,2.4H5.1z"/>
</svg>
