<?xml version="1.0" encoding="utf-8"?>
<!-- Generator: Adobe Illustrator 25.2.0, SVG Export Plug-In . SVG Version: 6.00 Build 0)  -->
<svg version="1.1" id="Layer_1" focusable="false" xmlns="http://www.w3.org/2000/svg" xmlns:xlink="http://www.w3.org/1999/xlink"
	 x="0px" y="0px" viewBox="0 0 576 512" style="enable-background:new 0 0 576 512;" xml:space="preserve">
<style type="text/css">
	.st0{fill:#002663;}
</style>
<path class="st0" d="M325.1,167.8c0-16.4-14.1-18.4-27.4-18.4l-39.1-0.3v69.3H275v-25.1h18c18.4,0,14.5,10.3,14.8,25.1h16.6v-13.5
	c0-9.2-1.5-15.1-11-18.4C320.8,183.5,325.2,175.8,325.1,167.8L325.1,167.8z M295.7,179.1H275v-15.3h21c5.1,0,10.7,1,10.7,7.4
	C306.7,177.8,301.4,179.1,295.7,179.1L295.7,179.1z M279,268.6h-52.7l-21,22.8l-20.5-22.8h-66.5l-0.1,69.3h65.4l21.3-23l20.4,23
	h32.2l0.1-23.3c18.9,0,49.3,4.6,49.3-23.3C306.9,274,294.6,268.6,279,268.6L279,268.6z M175.2,323.3h-40.6v-13.8h36.3v-14.1h-36.3
	v-12.5h41.7l17.9,20.2L175.2,323.3z M241,331.5l-25.3-28.1L241,276V331.5z M278.8,300.5h-21.2v-17.6h21.5c5.6,0,10.2,2.3,10.2,8.4
	C289.3,297.7,284.7,300.5,278.8,300.5z M247.2,163.8v-14.6h-55.5v69.3h55.5v-14.3h-38.9v-13.8h37.8v-14.1h-37.8v-12.5L247.2,163.8z
	 M576,255.4h-0.2H576z M381.4,287.3c0-16.4-14.1-18.7-27.1-18.7h-39.4l-0.1,69.3h16.6l0.1-25.3h17.6c11,0,14.8,2,14.8,13.8
	l-0.1,11.5h16.6l0.1-13.8c0-8.9-1.8-15.1-11-18.4C377.2,302.6,381.3,294.9,381.4,287.3z M352.2,298.5h-20.7v-15.6h21
	c5.1,0,10.7,1,10.7,7.4C363.2,297.2,357.8,298.5,352.2,298.5z M179.4,218.5v-69.3h-27.6l-19.7,47l-21.7-47H83.3v65.7l-28.1-65.7
	H30.7L1,218.5h17.9l6.4-15.3h34.5l6.4,15.3H100v-54.2l24,54.2h14.6l24-54.2v54.2H179.4z M31.2,188.8l11.2-27.6l11.5,27.6H31.2z
	 M508.6,347.7v-4.5c-10.8,5.6-3.9,4.5-156.7,4.5c0-25.2,0.1-23.9,0-25.2c-1.7-0.1-3.2-0.1-9.4-0.1c0,17.9-0.1,6.8-0.1,25.3h-39.6
	c0-12.1,0.1-15.3,0.1-29.2c-10,6-22.8,6.4-34.3,6.2c0,14.7-0.1,8.3-0.1,23h-48.9c-5.1-5.7-2.7-3.1-15.4-17.4
	c-3.2,3.5-12.8,13.9-16.1,17.4h-82v-92.3h83.1c5,5.6,2.8,3.1,15.5,17.2c3.2-3.5,12.2-13.4,15.7-17.2h58c9.8,0,18,1.9,24.3,5.6v-5.6
	c54.3,0,64.3-1.4,75.7,5.1v-5.1h78.2v5.2c11.4-6.9,19.6-5.2,64.9-5.2v5c10.3-5.9,16.6-5.2,54.3-5V80c0-26.5-21.5-48-48-48h-480
	c-26.5,0-48,21.5-48,48v109.8c9.4-21.9,19.7-46,23.1-53.9h39.7c4.3,10.1,1.6,3.7,9,21.1v-21.1h46c2.9,6.2,11.1,24,13.9,30
	c5.8-13.6,10.1-23.9,12.6-30h103c0-0.1,11.5,0,11.6,0c43.7,0.2,53.6-0.8,64.4,5.3v-5.3H363v9.3c7.6-6.1,17.9-9.3,30.7-9.3h27.6
	c0,0.5,1.9,0.3,2.3,0.3H456c4.2,9.8,2.6,6,8.8,20.6v-20.6h43.3c4.9,8-1-1.8,11.2,18.4v-18.4h39.9v92h-41.6c-5.4-9-1.4-2.2-13.2-21.9
	v21.9h-52.8c-6.4-14.8-0.1-0.3-6.6-15.3h-19c-4.2,10-2.2,5.2-6.4,15.3h-26.8c-12.3,0-22.3-3-29.7-8.9v8.9h-66.5
	c-0.3-13.9-0.1-24.8-0.1-24.8c-1.8-0.3-3.4-0.2-9.8-0.2v25.1H151.2v-11.4c-2.5,5.6-2.7,5.9-5.1,11.4h-29.5c-4-8.9-2.9-6.4-5.1-11.4
	v11.4H58.6c-4.2-10.1-2.2-5.3-6.4-15.3H33c-4.2,10-2.2,5.2-6.4,15.3H0V432c0,26.5,21.5,48,48,48h480.1c26.5,0,48-21.5,48-48v-90.4
	C563.4,349.9,543.4,347.7,508.6,347.7L508.6,347.7z M544.9,283.2H575v-14.6h-32.9c-12.8,0-23.8,6.6-23.8,20.7
	c0,33,42.7,12.8,42.7,27.4c0,5.1-4.3,6.4-8.4,6.4h-32l-0.1,14.8h32c8.4,0,17.6-1.8,22.5-8.9v-25.8c-10.5-13.8-39.3-1.3-39.3-13.5
	C535.7,283.9,540.3,283.2,544.9,283.2z M487.9,323h-32.2l-0.1,14.8h32.2c14.8,0,26.2-5.6,26.2-22c0-33.2-42.9-11.2-42.9-26.3
	c0-5.6,4.9-6.4,9.2-6.4h30.4v-14.6h-33.2c-12.8,0-23.5,6.6-23.5,20.7c0,33,42.7,12.5,42.7,27.4C496.6,322,492,323,487.9,323z
	 M445.7,282.9v-14.3h-55.2l-0.1,69.3h55.2l0.1-14.3l-38.6-0.3v-13.8H445v-14.1h-37.8v-12.5L445.7,282.9z M389.4,174.8
	c-0.3,0.2-1.4,2.2-1.4,7.6c0,6,0.9,7.7,1.1,7.9c0.2,0.1,1.1,0.5,3.4,0.5l7.3-16.9c-1.1,0-2.1-0.1-3.1-0.1
	C391.1,173.8,389.7,174.5,389.4,174.8z M409.8,164.3h-0.1H409.8z M393.6,149.1c-23.5,0-34,12-34,35.3c0,22.2,10.2,34,33,34h19.2
	l6.4-15.3h34.3l6.6,15.3h33.7v-51.9l31.2,51.9h23.6v-69h-16.9v48.1l-29.1-48.1h-25.3v65.4l-27.9-65.4h-24.8l-23.5,54.5h-7.4
	c-13.3,0-16.1-8.1-16.1-19.9c0-23.8,15.7-20,33.1-19.7v-15.2L393.6,149.1z M435.7,161.2l11.2,27.6h-22.8L435.7,161.2z M334.6,149.2
	v69.3h16.9v-69.3H334.6z"/>
</svg>
