<?xml version="1.0" encoding="utf-8"?>
<!-- Generator: Adobe Illustrator 25.2.0, SVG Export Plug-In . SVG Version: 6.00 Build 0)  -->
<svg version="1.1" id="Layer_1" focusable="false" xmlns="http://www.w3.org/2000/svg" xmlns:xlink="http://www.w3.org/1999/xlink"
	 x="0px" y="0px" viewBox="0 0 576 512" style="enable-background:new 0 0 576 512;" xml:space="preserve">
<style type="text/css">
	.st0{fill:#CC0000;}
</style>
<path class="st0" d="M482.9,410.3c0,6.8-4.6,11.7-11.2,11.7c-6.8,0-11.2-5.2-11.2-11.7s4.4-11.7,11.2-11.7
	C478.3,398.6,482.9,403.8,482.9,410.3z M172.1,398.6c-7.1,0-11.2,5.2-11.2,11.7S165,422,172.1,422c6.5,0,10.9-4.9,10.9-11.7
	C182.9,403.8,178.6,398.6,172.1,398.6z M289.6,398.3c-5.4,0-8.7,3.5-9.5,8.7h19.1C298.3,401.3,294.8,398.3,289.6,398.3z
	 M397.4,398.6c-6.8,0-10.9,5.2-10.9,11.7s4.1,11.7,10.9,11.7s11.2-4.9,11.2-11.7C408.6,403.8,404.2,398.6,397.4,398.6z M503.3,424.7
	c0,0.3,0.3,0.5,0.3,1.1c0,0.3-0.3,0.5-0.3,1.1c-0.3,0.3-0.3,0.5-0.5,0.8c-0.3,0.3-0.5,0.5-1.1,0.5c-0.3,0.3-0.5,0.3-1.1,0.3
	c-0.3,0-0.5,0-1.1-0.3c-0.3,0-0.5-0.3-0.8-0.5c-0.3-0.3-0.5-0.5-0.5-0.8c-0.3-0.5-0.3-0.8-0.3-1.1c0-0.5,0-0.8,0.3-1.1
	c0-0.5,0.3-0.8,0.5-1.1c0.3-0.3,0.5-0.3,0.8-0.5c0.5-0.3,0.8-0.3,1.1-0.3c0.5,0,0.8,0,1.1,0.3c0.5,0.3,0.8,0.3,1.1,0.5
	S503,424.2,503.3,424.7z M501.1,426.1c0.5,0,0.5-0.3,0.8-0.3c0.3-0.3,0.3-0.5,0.3-0.8s0-0.5-0.3-0.8c-0.3,0-0.5-0.3-1.1-0.3h-1.6
	v3.5h0.8V426h0.3l1.1,1.4h0.8L501.1,426.1L501.1,426.1z M576,81v352c0,26.5-21.5,48-48,48H48c-26.5,0-48-21.5-48-48V81
	c0-26.5,21.5-48,48-48h480C554.5,33,576,54.5,576,81z M64,220.6c0,76.5,62.1,138.5,138.5,138.5c27.2,0,53.9-8.2,76.5-23.1
	c-72.9-59.3-72.4-171.2,0-230.5c-22.6-15-49.3-23.1-76.5-23.1C126.1,82.3,64,144.4,64,220.6z M288,329.4c70.5-55,70.2-162.2,0-217.5
	C217.8,167.2,217.5,274.5,288,329.4z M145.7,405.7c0-8.7-5.7-14.4-14.7-14.7c-4.6,0-9.5,1.4-12.8,6.5c-2.4-4.1-6.5-6.5-12.2-6.5
	c-3.8,0-7.6,1.4-10.6,5.4V392h-8.2v36.7h8.2c0-18.9-2.5-30.2,9-30.2c10.2,0,8.2,10.2,8.2,30.2h7.9c0-18.3-2.5-30.2,9-30.2
	c10.2,0,8.2,10,8.2,30.2h8.2v-23H145.7z M190.6,392h-7.9v4.4c-2.7-3.3-6.5-5.4-11.7-5.4c-10.3,0-18.2,8.2-18.2,19.3
	c0,11.2,7.9,19.3,18.2,19.3c5.2,0,9-1.9,11.7-5.4v4.6h7.9V392z M231.1,417.6c0-15-22.9-8.2-22.9-15.2c0-5.7,11.9-4.8,18.5-1.1
	l3.3-6.5c-9.4-6.1-30.2-6-30.2,8.2c0,14.3,22.9,8.3,22.9,15c0,6.3-13.5,5.8-20.7,0.8l-3.5,6.3C209.7,432.7,231.1,431.1,231.1,417.6
	L231.1,417.6z M266.5,426.9l-2.2-6.8c-3.8,2.1-12.2,4.4-12.2-4.1v-16.6h13.1V392h-13.1v-11.2h-8.2V392h-7.6v7.3h7.6V416
	C243.9,433.6,261.2,430.4,266.5,426.9L266.5,426.9z M279.8,413.5h27.5c0-16.2-7.4-22.6-17.4-22.6c-10.6,0-18.2,7.9-18.2,19.3
	c0,20.5,22.6,23.9,33.8,14.2l-3.8-6C293.9,424.8,282.1,424.2,279.8,413.5z M338.9,392c-4.6-2-11.6-1.8-15.2,4.4V392h-8.2v36.7h8.2
	V408c0-11.6,9.5-10.1,12.8-8.4L338.9,392L338.9,392z M349.5,410.3c0-11.4,11.6-15.1,20.7-8.4l3.8-6.5c-11.6-9.1-32.7-4.1-32.7,15
	c0,19.8,22.4,23.8,32.7,15l-3.8-6.5C361,425.4,349.5,421.5,349.5,410.3z M416.2,392H408v4.4c-8.3-11-29.9-4.8-29.9,13.9
	c0,19.2,22.4,24.7,29.9,13.9v4.6h8.2V392z M449.9,392c-2.4-1.2-11-2.9-15.2,4.4V392h-7.9v36.7h7.9V408c0-11,9-10.3,12.8-8.4
	L449.9,392L449.9,392z M490.2,377.1h-7.9v19.3c-8.2-10.9-29.9-5.1-29.9,13.9c0,19.4,22.5,24.6,29.9,13.9v4.6h7.9V377.1L490.2,377.1z
	 M497.8,302v4.6h0.8V302h1.9v-0.8h-4.6v0.8H497.8L497.8,302z M504.4,425.8c0-0.5,0-1.1-0.3-1.6c-0.3-0.3-0.5-0.8-0.8-1.1
	c-0.3-0.3-0.8-0.5-1.1-0.8c-0.5,0-1.1-0.3-1.6-0.3c-0.3,0-0.8,0.3-1.4,0.3c-0.5,0.3-0.8,0.5-1.1,0.8c-0.5,0.3-0.8,0.8-0.8,1.1
	c-0.3,0.5-0.3,1.1-0.3,1.6c0,0.3,0,0.8,0.3,1.4c0,0.3,0.3,0.8,0.8,1.1c0.3,0.3,0.5,0.5,1.1,0.8c0.5,0.3,1.1,0.3,1.4,0.3
	c0.5,0,1.1,0,1.6-0.3c0.3-0.3,0.8-0.5,1.1-0.8c0.3-0.3,0.5-0.8,0.8-1.1C504.4,426.6,504.4,426.1,504.4,425.8z M507.6,301.1h-1.4
	l-1.6,3.5l-1.6-3.5h-1.4v5.4h0.8v-4.1l1.6,3.5h1.1l1.4-3.5v4.1h1.1V301.1z M512,220.6c0-76.2-62.1-138.3-138.5-138.3
	c-27.2,0-53.9,8.2-76.5,23.1c72.1,59.3,73.2,171.5,0,230.5c22.6,15,49.5,23.1,76.5,23.1C449.9,359.1,512,297.1,512,220.6z"/>
</svg>
