<?xml version="1.0" encoding="utf-8"?>
<!-- Generator: Adobe Illustrator 25.2.0, SVG Export Plug-In . SVG Version: 6.00 Build 0)  -->
<svg version="1.1" id="Layer_1" focusable="false" xmlns="http://www.w3.org/2000/svg" xmlns:xlink="http://www.w3.org/1999/xlink"
	 x="0px" y="0px" viewBox="0 0 576 512" style="enable-background:new 0 0 576 512;" xml:space="preserve">
<style type="text/css">
	.st0{fill:#1A1F71;}
</style>
<path class="st0" d="M470.1,231.3c0,0,7.6,37.2,9.3,45H446c3.3-8.9,16-43.5,16-43.5c-0.2,0.3,3.3-9.1,5.3-14.9L470.1,231.3
	L470.1,231.3z M576,80v352c0,26.5-21.5,48-48,48H48c-26.5,0-48-21.5-48-48V80c0-26.5,21.5-48,48-48h480C554.5,32,576,53.5,576,80z
	 M152.5,331.2L215.7,176h-42.5l-39.3,106l-4.3-21.5l-14-71.4c-2.3-9.9-9.4-12.7-18.2-13.1H32.7l-0.7,3.1c15.8,4,29.9,9.8,42.2,17.1
	l35.8,135H152.5z M246.9,331.4L272.1,176h-40.2l-25.1,155.4L246.9,331.4L246.9,331.4z M386.8,280.6c0.2-17.7-10.6-31.2-33.7-42.3
	c-14.1-7.1-22.7-11.9-22.7-19.2c0.2-6.6,7.3-13.4,23.1-13.4c13.1-0.3,22.7,2.8,29.9,5.9l3.6,1.7l5.5-33.6c-7.9-3.1-20.5-6.6-36-6.6
	c-39.7,0-67.6,21.2-67.8,51.4c-0.3,22.3,20,34.7,35.2,42.2c15.5,7.6,20.8,12.6,20.8,19.3c-0.2,10.4-12.6,15.2-24.1,15.2
	c-16,0-24.6-2.5-37.7-8.3l-5.3-2.5l-5.6,34.9c9.4,4.3,26.8,8.1,44.8,8.3C359,333.7,386.5,312.8,386.8,280.6L386.8,280.6z M528,331.4
	L495.6,176h-31.1c-9.6,0-16.9,2.8-21,12.9l-59.7,142.5H426c0,0,6.9-19.2,8.4-23.3H486c1.2,5.5,4.8,23.3,4.8,23.3H528z"/>
</svg>
