<?xml version="1.0" encoding="utf-8"?>
<!-- Generator: Adobe Illustrator 25.1.0, SVG Export Plug-In . SVG Version: 6.00 Build 0)  -->
<svg version="1.1" id="Layer_1" xmlns="http://www.w3.org/2000/svg" xmlns:xlink="http://www.w3.org/1999/xlink" x="0px" y="0px"
	 viewBox="0 0 200 170" style="enable-background:new 0 0 200 170;" xml:space="preserve">
<path d="M55.4,131.5h-7v9.1h7c1.7,0,2.9-0.4,3.8-1.2c0.8-0.8,1.3-1.9,1.3-3.3s-0.4-2.5-1.3-3.4C58.3,131.9,57,131.5,55.4,131.5
	 M84.9,137.9c0.3-0.5,0.5-1.2,0.5-2c0-1.4-0.4-2.4-1.4-3.2c-0.9-0.8-2.1-1.1-3.7-1.1h-7.4v8.5h7.3C82.5,140.1,84,139.4,84.9,137.9
	 M100,0L0,170h200L100,0 M60.9,141c-1.3,1.2-3.1,1.8-5.3,1.8h-7.1v7.6H46v-21.2h9.5c2.2,0,4,0.6,5.3,1.9c1.3,1.2,2,2.9,2,4.9
	C62.8,138.1,62.2,139.8,60.9,141 M85.4,150.4l-5.1-8.1h-7.4v8.1h-2.4v-21.2h10.1c2.2,0,3.9,0.6,5.2,1.8c1.3,1.2,1.9,2.8,1.9,4.8
	c0,2.6-1.1,4.4-3.3,5.4c-0.6,0.3-1.2,0.5-1.8,0.6l5.6,8.6L85.4,150.4 M98.8,150.4h-2.4v-21.2h2.4V150.4 M122.3,149.1
	c-1.5,1.1-3.5,1.6-6.2,1.6c-3,0-5.2-0.6-6.8-1.9c-1.4-1.1-2.2-2.7-2.4-4.7h2.5c0.1,1.4,0.8,2.6,2.1,3.3c1.2,0.7,2.7,1,4.6,1
	c4,0,5.9-1.2,5.9-3.7c0-0.9-0.3-1.5-1.1-2c-0.7-0.5-1.6-0.9-2.7-1.2c-1.1-0.3-2.2-0.6-3.5-0.9s-2.4-0.6-3.5-1.1s-2-1-2.7-1.7
	c-0.7-0.7-1.1-1.7-1.1-2.9c0-1.7,0.7-3.1,2-4.2c1.3-1.1,3.3-1.6,6-1.6c2.7,0,4.8,0.6,6.2,1.9c1.3,1.1,2.1,2.5,2.1,4.2h-2.5
	c-0.2-1.8-1.3-2.9-3.4-3.5c-0.7-0.2-1.6-0.3-2.7-0.3s-2,0.1-2.7,0.4s-1.3,0.6-1.7,0.9c-0.4,0.4-0.7,0.7-0.8,1.2s-0.2,0.9-0.2,1.4
	c0,0.5,0.2,0.9,0.6,1.3s1,0.8,1.7,1c0.7,0.3,1.5,0.5,2.3,0.7c0.9,0.2,1.8,0.4,2.7,0.6s1.8,0.5,2.7,0.8c0.9,0.3,1.7,0.6,2.3,1.1
	c1.5,1,2.3,2.3,2.3,3.9C124.6,146.6,123.8,148.1,122.3,149.1 M151.2,150.4v-17.5l-7.8,10.1l-8-10.1v17.5H133v-21.2h2.8l7.6,10.1
	l7.4-10.1h2.8v21.2L151.2,150.4"/>
</svg>
