<?xml version="1.0" encoding="utf-8"?>
<!-- Generator: Adobe Illustrator 25.2.0, SVG Export Plug-In . SVG Version: 6.00 Build 0)  -->
<svg version="1.1" id="Layer_1" xmlns="http://www.w3.org/2000/svg" xmlns:xlink="http://www.w3.org/1999/xlink" x="0px" y="0px"
	 viewBox="0 0 384.6 251.8" style="enable-background:new 0 0 384.6 251.8;" xml:space="preserve">
<style type="text/css">
	.st0{fill:#E0E0E0;}
	.st1{fill:#F5F5F5;}
	.st2{fill:#EBEBEB;}
	.st3{fill:#6200EA;}
	.st4{opacity:0.7;fill:#FFFFFF;enable-background:new    ;}
	.st5{clip-path:url(#SVGID_2_);}
	.st6{opacity:0.1;enable-background:new    ;}
	.st7{fill:#FFFFFF;}
	.st8{opacity:0.6;fill:#6200EA;enable-background:new    ;}
</style>
<g id="freepik--background-complete--inject-5">
	<path class="st0" d="M130.4,74.8c-0.1-15.7-12.9-28.3-28.6-28.2c-3.6,0-7.1,0.7-10.4,2.1c-8.3-17-28.9-24.1-45.9-15.8
		C36.1,37.5,29.3,46.1,27,56.3c-16.3,1.4-28.3,15.8-26.9,32c1.3,15,13.7,26.6,28.8,27H123c11.6-0.1,20.9-9.6,20.8-21.2
		C143.7,85.6,138.4,77.9,130.4,74.8L130.4,74.8z"/>
	<path class="st1" d="M371.3,211.3c-0.1-15.7-13-28.3-28.7-28.2c-3.5,0-7.1,0.7-10.3,2c-8.3-17-28.9-24.1-45.9-15.8
		c-9.4,4.6-16.2,13.2-18.5,23.4c-16.3,1-28.7,15.1-27.6,31.4c1,15.6,13.9,27.7,29.5,27.7h94.1c11.6-0.1,20.9-9.7,20.7-21.3
		C384.5,222,379.2,214.4,371.3,211.3z"/>
	<path class="st0" d="M281.3,119.1c-0.1-8.1-6.7-14.7-14.9-14.6c-1.8,0-3.7,0.4-5.4,1.1c-4.3-8.8-15-12.5-23.8-8.2
		c-4.9,2.4-8.4,6.9-9.6,12.2c-8.4,0.5-14.9,7.8-14.3,16.3c0.5,8.1,7.2,14.4,15.3,14.4h48.8c6,0,10.8-4.9,10.8-10.9
		C288.2,124.8,285.4,120.8,281.3,119.1L281.3,119.1z"/>
	<path class="st2" d="M350.1,31.1c-0.1-10.8-8.9-19.4-19.7-19.3c-2.4,0-4.8,0.5-7.1,1.4c-5.7-11.7-19.8-16.5-31.5-10.8
		c-6.4,3.1-11.1,9-12.6,16c-11.2,0.8-19.6,10.5-18.8,21.6c0.7,10.6,9.5,18.8,20.1,18.8h64.5c7.9,0,14.4-6.4,14.4-14.4
		C359.3,38.6,355.6,33.2,350.1,31.1z"/>
	<path class="st1" d="M143.4,202.5c-0.1-10.8-8.9-19.4-19.6-19.3c-2.4,0-4.9,0.5-7.1,1.4c-5.7-11.7-19.8-16.5-31.5-10.8
		c-6.4,3.1-11.1,9-12.7,16c-11.2,0.8-19.6,10.5-18.8,21.6c0.7,10.6,9.5,18.8,20.1,18.8h64.5c7.9,0,14.4-6.4,14.4-14.4
		C152.7,210,149,204.6,143.4,202.5L143.4,202.5z"/>
	<path class="st0" d="M68.3,102.3c-0.1,0-0.3-0.1-0.4-0.1c0,0-0.1-0.1-0.1-0.2c0-0.1,0-0.1,0-0.2c0-0.1,0-0.1,0-0.2
		c0-0.1,0.1-0.1,0.1-0.2c0.1-0.1,0.4-0.2,0.5-0.1c0.1,0,0.1,0.1,0.2,0.1c0.1,0.1,0.2,0.2,0.1,0.4c0,0.1,0,0.1,0,0.2
		c0,0.1-0.1,0.1-0.1,0.2C68.6,102.3,68.4,102.4,68.3,102.3z"/>
	<path class="st0" d="M309.8,29.9c-0.1,0-0.3-0.1-0.4-0.2c-0.1-0.1-0.1-0.2-0.1-0.3c0-0.1,0-0.1,0-0.2c0-0.1,0.1-0.1,0.1-0.2
		c0.2-0.2,0.5-0.2,0.7,0c0.1,0.1,0.1,0.2,0.1,0.3c0,0.1,0,0.1,0,0.2c0,0.1-0.1,0.1-0.1,0.2c0,0-0.1,0.1-0.2,0.1
		C309.9,29.9,309.8,29.9,309.8,29.9z"/>
	<path class="st0" d="M103.1,218.1c-0.1,0-0.3,0-0.4-0.1c0,0-0.1-0.1-0.1-0.2c0-0.1,0-0.1,0-0.2c0-0.1,0.1-0.3,0.1-0.4
		c0.1-0.1,0.4-0.2,0.6-0.1c0.1,0,0.1,0.1,0.2,0.1c0.1,0.1,0.1,0.2,0.1,0.4c0,0.1,0,0.1,0,0.2c0,0.1-0.1,0.1-0.1,0.2
		c0,0-0.1,0.1-0.2,0.1C103.3,218.1,103.2,218.1,103.1,218.1z"/>
	<path class="st0" d="M166.1,161.5c-0.1,0-0.1,0-0.2,0c-0.1,0-0.1-0.1-0.2-0.1c0,0-0.1-0.1-0.1-0.2c0-0.1,0-0.1,0-0.2
		c0-0.1,0-0.3,0.1-0.4c0.1,0,0.1-0.1,0.2-0.1c0.1-0.1,0.3-0.1,0.4,0c0.1,0,0.1,0.1,0.2,0.1c0.1,0.1,0.1,0.2,0.1,0.4
		c0,0.1,0,0.1,0,0.2c0,0.1-0.1,0.1-0.1,0.2C166.4,161.4,166.3,161.5,166.1,161.5L166.1,161.5z"/>
	<path class="st0" d="M250.8,161.5c-0.1,0-0.3-0.1-0.4-0.1c0,0-0.1-0.1-0.1-0.2c0-0.1,0-0.1,0-0.2c0-0.1,0-0.1,0-0.2
		c0-0.1,0.1-0.1,0.1-0.2c0,0,0.1-0.1,0.2-0.1c0.1-0.1,0.3-0.1,0.4,0c0.1,0,0.1,0.1,0.2,0.1c0,0,0.1,0.1,0.1,0.2c0,0.1,0,0.1,0,0.2
		c0,0.1,0,0.3-0.1,0.4C251,161.4,250.9,161.4,250.8,161.5z"/>
	<path class="st0" d="M250.8,129.9c-0.1,0-0.3,0-0.4-0.1c0-0.1-0.1-0.1-0.1-0.2c0-0.1,0-0.1,0-0.2c0-0.1,0-0.1,0-0.2
		c0.1-0.1,0.1-0.2,0.3-0.3c0.2-0.1,0.4,0,0.5,0.1c0.1,0.1,0.1,0.2,0.1,0.4C251.3,129.7,251.1,129.9,250.8,129.9
		C250.8,129.9,250.8,129.9,250.8,129.9z"/>
</g>
<g id="freepik--Cloud--inject-5">
	<path class="st3" d="M339.8,122.8c-0.3-32.9-27-59.4-59.9-59.4h-24.7c-12.9-22.5-36.9-36.3-62.8-36.3h-48.1v18.4
		c-11.3,10.1-19.2,23.5-22.5,38.3c-34.4,2-60.6,31.5-58.5,65.9c2,33.1,29.4,58.8,62.5,58.6h198.3c24.4,0,44.2-19.8,44.2-44.2
		C368.3,145.8,357,129.3,339.8,122.8L339.8,122.8z"/>
	<path class="st4" d="M339.8,122.8c-0.3-32.9-27-59.4-59.9-59.4h-24.7c-12.9-22.5-36.9-36.3-62.8-36.3h-48.1v18.4
		c-11.3,10.1-19.2,23.5-22.5,38.3c-34.4,2-60.6,31.5-58.5,65.9c2,33.1,29.4,58.8,62.5,58.6h198.3c24.4,0,44.2-19.8,44.2-44.2
		C368.3,145.8,357,129.3,339.8,122.8L339.8,122.8z"/>
	<path class="st3" d="M291.7,122.8c-0.3-33.1-27.3-59.7-60.4-59.4c-7.5,0.1-15,1.5-21.9,4.4c-17.5-35.9-60.9-50.9-96.8-33.3
		c-19.8,9.7-34.1,27.8-38.9,49.3c-34.4,1.8-60.8,31.1-59,65.5c1.7,33.4,29.6,59.5,63.1,59.1h198.3c24.4,0,44.2-19.8,44.2-44.2
		C320.1,145.8,308.8,129.3,291.7,122.8L291.7,122.8z"/>
	<g>
		<defs>
			<path id="SVGID_1_" d="M291.7,122.8c-0.3-33.1-27.3-59.7-60.4-59.4c-7.5,0.1-15,1.5-21.9,4.4c-17.5-35.9-60.9-50.9-96.8-33.3
				c-19.8,9.7-34.1,27.8-38.9,49.3c-34.4,1.8-60.8,31.1-59,65.5c1.7,33.4,29.6,59.5,63.1,59.1h198.3c24.4,0,44.2-19.8,44.2-44.2
				C320.1,145.8,308.8,129.3,291.7,122.8L291.7,122.8z"/>
		</defs>
		<clipPath id="SVGID_2_">
			<use xlink:href="#SVGID_1_"  style="overflow:visible;"/>
		</clipPath>
		<g class="st5">
			<path class="st6" d="M339.8,122.8c-0.3-33.1-27.4-59.7-60.4-59.4c-7.5,0.1-14.9,1.5-21.9,4.3c-17.5-35.9-60.9-50.9-96.8-33.3
				c-19.8,9.7-34.1,27.8-38.9,49.3c-34.4,1.8-60.8,31.1-59,65.5c1.7,33.4,29.6,59.5,63,59.1h198.3c24.4,0,44.2-19.8,44.2-44.2
				C368.3,145.8,357,129.3,339.8,122.8L339.8,122.8z"/>
		</g>
	</g>
	<path class="st3" d="M275.9,209.3H77.6c-35,0-63.3-28.3-63.4-63.2c0-33.1,25.5-60.7,58.5-63.2c7.7-33.3,37.4-56.8,71.5-56.8
		c27.8-0.1,53.2,15.6,65.5,40.4c31.4-12.1,66.6,3.5,78.8,34.8c2.6,6.6,4,13.7,4.1,20.8c23.2,9.2,34.6,35.4,25.4,58.6
		C311.3,198,294.5,209.3,275.9,209.3z M144.3,28C110.9,28.2,82,51.4,74.6,84c-0.1,0.4-0.5,0.7-0.9,0.8
		c-33.8,2.2-59.4,31.4-57.2,65.2c2.1,32.3,28.9,57.4,61.2,57.4h198.3c23.9,0,43.2-19.4,43.2-43.2c0-17.9-11.1-34-27.8-40.3
		c-0.4-0.1-0.6-0.5-0.6-0.9c-0.3-32.6-27-58.7-59.6-58.4c-7.3,0.1-14.6,1.5-21.4,4.3c-0.5,0.2-1,0-1.2-0.5
		C196.5,43.6,171.6,28,144.3,28z"/>
	<path class="st4" d="M275.9,209.3H77.6c-35,0-63.3-28.3-63.4-63.2c0-33.1,25.5-60.7,58.5-63.2c7.7-33.3,37.4-56.8,71.5-56.8
		c27.8-0.1,53.2,15.6,65.5,40.4c31.4-12.1,66.6,3.5,78.8,34.8c2.6,6.6,4,13.7,4.1,20.8c23.2,9.2,34.6,35.4,25.4,58.6
		C311.3,198,294.5,209.3,275.9,209.3z M144.3,28C110.9,28.2,82,51.4,74.6,84c-0.1,0.4-0.5,0.7-0.9,0.8
		c-33.8,2.2-59.4,31.4-57.2,65.2c2.1,32.3,28.9,57.4,61.2,57.4h198.3c23.9,0,43.2-19.4,43.2-43.2c0-17.9-11.1-34-27.8-40.3
		c-0.4-0.1-0.6-0.5-0.6-0.9c-0.3-32.6-27-58.7-59.6-58.4c-7.3,0.1-14.6,1.5-21.4,4.3c-0.5,0.2-1,0-1.2-0.5
		C196.5,43.6,171.6,28,144.3,28z"/>
	<path class="st0" d="M134.9,207.3H119l0,0v-87.4l0,0h15.9c2.5,0,4.4,2,4.4,4.5l0,0v78.5C139.3,205.3,137.3,207.3,134.9,207.3z"/>
	<path class="st7" d="M86.3,119.9h34.3c2.5,0,4.4,2,4.4,4.4v78.5c0,2.5-2,4.5-4.4,4.5H86.3c-2.5,0-4.4-2-4.4-4.5v-78.5
		C81.8,121.9,83.8,119.9,86.3,119.9z"/>
	<rect x="81.8" y="189.2" class="st0" width="43.2" height="0.8"/>
	<rect x="81.8" y="171.8" class="st0" width="43.2" height="0.8"/>
	<rect x="81.8" y="154.5" class="st0" width="43.2" height="0.8"/>
	<rect x="81.8" y="137.2" class="st0" width="43.2" height="0.8"/>
	<path class="st8" d="M103.4,131.6H88.9c-0.9,0-1.6,0.8-1.6,1.7c0,0,0,0,0,0l0,0c0,0.9,0.7,1.6,1.6,1.6h14.4c0.9,0,1.6-0.7,1.6-1.6
		l0,0C105.1,132.4,104.3,131.6,103.4,131.6C103.4,131.6,103.4,131.6,103.4,131.6z"/>
	<path class="st8" d="M103.4,127.3H88.9c-0.9,0-1.6,0.7-1.6,1.6l0,0c0,0.9,0.7,1.6,1.6,1.6h14.4c0.9,0,1.6-0.7,1.6-1.6l0,0
		C105,128,104.3,127.3,103.4,127.3z"/>
	<path class="st8" d="M103.4,123H88.9c-0.9,0-1.6,0.7-1.6,1.6l0,0c0,0.9,0.7,1.6,1.6,1.6h14.4c0.9,0,1.6-0.7,1.6-1.6l0,0
		C105,123.8,104.3,123,103.4,123z"/>
	<rect x="106.5" y="131.6" class="st2" width="6" height="3.3"/>
	<rect x="106.5" y="127.3" class="st3" width="6" height="3.3"/>
	<rect x="106.5" y="123" class="st2" width="6" height="3.3"/>
	<rect x="113.5" y="131.6" class="st2" width="6" height="3.3"/>
	<rect x="113.5" y="127.3" class="st2" width="6" height="3.3"/>
	<rect x="113.5" y="123" class="st3" width="6" height="3.3"/>
	<path class="st2" d="M103.4,148.9H88.9c-0.9,0-1.6,0.7-1.6,1.6l0,0c0,0.9,0.7,1.6,1.6,1.6h14.4c0.9,0,1.6-0.7,1.6-1.6l0,0
		C105,149.6,104.3,148.9,103.4,148.9z"/>
	<path class="st8" d="M103.4,144.6H88.9c-0.9,0-1.6,0.8-1.6,1.7l0,0c0,0.9,0.7,1.6,1.6,1.6h14.4c0.9,0,1.6-0.7,1.6-1.6l0,0
		C105,145.4,104.3,144.6,103.4,144.6C103.4,144.6,103.4,144.6,103.4,144.6z"/>
	<path class="st8" d="M103.4,140.3H88.9c-0.9,0-1.6,0.8-1.6,1.6l0,0c0,0.9,0.7,1.6,1.6,1.6h14.4c0.9,0,1.6-0.7,1.6-1.6l0,0
		C105,141.1,104.3,140.3,103.4,140.3C103.4,140.3,103.4,140.3,103.4,140.3z"/>
	<rect x="106.5" y="148.9" class="st2" width="6" height="3.3"/>
	<rect x="106.5" y="144.6" class="st2" width="6" height="3.3"/>
	<rect x="106.5" y="140.3" class="st3" width="6" height="3.3"/>
	<rect x="113.5" y="148.9" class="st2" width="6" height="3.3"/>
	<rect x="113.5" y="144.6" class="st2" width="6" height="3.3"/>
	<rect x="113.5" y="140.3" class="st2" width="6" height="3.3"/>
	<path class="st8" d="M103.4,166.2H88.9c-0.9,0-1.6,0.7-1.6,1.6l0,0c0,0.9,0.7,1.6,1.6,1.6h14.4c0.9,0,1.6-0.7,1.6-1.6l0,0
		C105,167,104.3,166.2,103.4,166.2z"/>
	<path class="st8" d="M103.4,161.9H88.9c-0.9,0-1.6,0.8-1.6,1.7l0,0c0,0.9,0.7,1.6,1.6,1.6h14.4c0.9,0,1.6-0.7,1.6-1.6l0,0
		C105,162.7,104.3,161.9,103.4,161.9C103.4,161.9,103.4,161.9,103.4,161.9z"/>
	<path class="st8" d="M103.4,157.7H88.9c-0.9,0-1.6,0.7-1.6,1.6l0,0c0,0.9,0.7,1.6,1.6,1.6h14.4c0.9,0,1.6-0.7,1.6-1.6l0,0
		C105,158.4,104.3,157.6,103.4,157.7C103.4,157.7,103.4,157.7,103.4,157.7z"/>
	<rect x="106.5" y="166.2" class="st2" width="6" height="3.3"/>
	<rect x="106.5" y="161.9" class="st3" width="6" height="3.3"/>
	<rect x="106.5" y="157.6" class="st2" width="6" height="3.3"/>
	<rect x="113.5" y="166.2" class="st2" width="6" height="3.3"/>
	<rect x="113.5" y="161.9" class="st2" width="6" height="3.3"/>
	<rect x="113.5" y="157.6" class="st3" width="6" height="3.3"/>
	<path class="st8" d="M103.4,183.5H88.9c-0.9,0-1.6,0.7-1.6,1.6l0,0c0,0.9,0.7,1.6,1.6,1.6h14.4c0.9,0,1.6-0.7,1.6-1.6l0,0
		C105,184.3,104.3,183.5,103.4,183.5z"/>
	<path class="st8" d="M88.9,179.3h14.4c0.9,0,1.6,0.7,1.6,1.6v0c0,0.9-0.7,1.6-1.6,1.6H88.9c-0.9,0-1.6-0.7-1.6-1.6v0
		C87.3,180,88,179.3,88.9,179.3z"/>
	<path class="st8" d="M103.4,175H88.9c-0.9,0-1.6,0.7-1.6,1.6c0,0,0,0,0,0l0,0c0,0.9,0.7,1.6,1.6,1.6h14.4c0.9,0,1.6-0.7,1.6-1.6
		l0,0C105,175.7,104.3,175,103.4,175C103.4,175,103.4,175,103.4,175z"/>
	<rect x="106.5" y="183.5" class="st2" width="6" height="3.3"/>
	<rect x="106.5" y="179.3" class="st3" width="6" height="3.3"/>
	<rect x="106.5" y="175" class="st2" width="6" height="3.3"/>
	<rect x="113.5" y="183.5" class="st3" width="6" height="3.3"/>
	<rect x="113.5" y="179.3" class="st2" width="6" height="3.3"/>
	<rect x="113.5" y="175" class="st3" width="6" height="3.3"/>
	<path class="st8" d="M103.4,200.9H88.9c-0.9,0-1.6,0.7-1.6,1.6l0,0c0,0.9,0.7,1.6,1.6,1.6c0,0,0,0,0,0h14.4c0.9,0,1.6-0.7,1.6-1.6
		c0,0,0,0,0,0l0,0C105,201.6,104.3,200.9,103.4,200.9z"/>
	<path class="st8" d="M103.4,196.6H88.9c-0.9,0-1.6,0.7-1.6,1.6l0,0c0,0.9,0.7,1.6,1.6,1.6h14.4c0.9,0,1.6-0.7,1.6-1.6l0,0
		C105,197.3,104.3,196.6,103.4,196.6z"/>
	<path class="st8" d="M103.4,192.3H88.9c-0.9,0-1.6,0.7-1.6,1.6l0,0c0,0.9,0.7,1.6,1.6,1.6h14.4c0.9,0,1.6-0.7,1.6-1.6l0,0
		C105,193,104.3,192.3,103.4,192.3z"/>
	<rect x="106.5" y="200.9" class="st3" width="6" height="3.3"/>
	<rect x="106.5" y="196.6" class="st2" width="6" height="3.3"/>
	<rect x="106.5" y="192.3" class="st2" width="6" height="3.3"/>
	<rect x="113.5" y="200.9" class="st2" width="6" height="3.3"/>
	<rect x="113.5" y="196.6" class="st2" width="6" height="3.3"/>
	<rect x="113.5" y="192.3" class="st3" width="6" height="3.3"/>
	<path class="st0" d="M204.6,207.3h-23.4l0,0V78.6l0,0h23.4c3.6,0,6.5,2.9,6.5,6.5l0,0v115.6C211.2,204.4,208.3,207.3,204.6,207.3
		C204.6,207.3,204.6,207.3,204.6,207.3z"/>
	<path class="st7" d="M133,78.6h50.5c3.6,0,6.5,2.9,6.5,6.5v115.6c0,3.6-2.9,6.5-6.5,6.5H133c-3.6,0-6.5-2.9-6.5-6.5V85.1
		C126.5,81.5,129.4,78.6,133,78.6z"/>
	<rect x="126.5" y="180.6" class="st0" width="63.6" height="1.2"/>
	<rect x="126.5" y="155.1" class="st0" width="63.6" height="1.2"/>
	<rect x="126.5" y="129.6" class="st0" width="63.6" height="1.2"/>
	<rect x="126.5" y="104.1" class="st0" width="63.6" height="1.2"/>
	<path class="st8" d="M158.2,95.8h-21.3c-1.3,0-2.4,1.1-2.4,2.4l0,0c0,1.3,1.1,2.4,2.4,2.4h21.3c1.3,0,2.4-1.1,2.4-2.4l0,0
		C160.6,96.9,159.5,95.8,158.2,95.8z"/>
	<path class="st8" d="M158.2,89.5h-21.3c-1.3,0-2.4,1.1-2.4,2.4l0,0c0,1.3,1.1,2.4,2.4,2.4h21.3c1.3,0,2.4-1.1,2.4-2.4l0,0
		C160.6,90.6,159.5,89.5,158.2,89.5z"/>
	<path class="st8" d="M158.2,83.2h-21.3c-1.3,0-2.4,1.1-2.4,2.4l0,0c0,1.3,1.1,2.4,2.4,2.4h21.3c1.3,0,2.4-1.1,2.4-2.4l0,0
		C160.6,84.3,159.5,83.2,158.2,83.2z"/>
	<rect x="162.8" y="95.8" class="st2" width="8.9" height="4.9"/>
	<rect x="162.8" y="89.5" class="st3" width="8.9" height="4.9"/>
	<rect x="162.8" y="83.2" class="st2" width="8.9" height="4.9"/>
	<rect x="173.2" y="95.8" class="st2" width="8.9" height="4.9"/>
	<rect x="173.2" y="89.5" class="st2" width="8.9" height="4.9"/>
	<rect x="173.2" y="83.2" class="st3" width="8.9" height="4.9"/>
	<path class="st8" d="M158.2,121.3h-21.3c-1.3,0-2.4,1.1-2.4,2.4l0,0c0,1.3,1.1,2.4,2.4,2.4h21.3c1.3,0,2.4-1.1,2.4-2.4l0,0
		C160.6,122.4,159.5,121.3,158.2,121.3z"/>
	<path class="st8" d="M158.2,115h-21.3c-1.3,0-2.4,1.1-2.4,2.4l0,0c0,1.3,1.1,2.4,2.4,2.4h21.3c1.3,0,2.4-1.1,2.4-2.4l0,0
		C160.6,116.1,159.5,115,158.2,115z"/>
	<path class="st8" d="M158.2,108.7h-21.3c-1.3,0-2.4,1.1-2.4,2.4l0,0c0,1.3,1.1,2.4,2.4,2.4h21.3c1.3,0,2.4-1.1,2.4-2.4l0,0
		C160.6,109.8,159.5,108.7,158.2,108.7z"/>
	<rect x="162.8" y="121.3" class="st2" width="8.9" height="4.9"/>
	<rect x="162.8" y="115" class="st2" width="8.9" height="4.9"/>
	<rect x="162.8" y="108.7" class="st3" width="8.9" height="4.9"/>
	<rect x="173.2" y="121.3" class="st3" width="8.9" height="4.9"/>
	<rect x="173.2" y="115" class="st2" width="8.9" height="4.9"/>
	<rect x="173.2" y="108.7" class="st3" width="8.9" height="4.9"/>
	<path class="st8" d="M158.2,146.8h-21.3c-1.3,0-2.4,1.1-2.4,2.4c0,0,0,0,0,0l0,0c0,1.3,1.1,2.4,2.4,2.4c0,0,0,0,0,0h21.3
		c1.3,0,2.4-1.1,2.4-2.4l0,0C160.6,147.9,159.5,146.8,158.2,146.8C158.2,146.8,158.2,146.8,158.2,146.8z"/>
	<path class="st8" d="M158.2,140.5h-21.3c-1.3,0-2.4,1.1-2.4,2.4c0,0,0,0,0,0l0,0c0,1.3,1.1,2.4,2.4,2.4c0,0,0,0,0,0h21.3
		c1.3,0,2.4-1.1,2.4-2.4l0,0C160.6,141.6,159.5,140.5,158.2,140.5C158.2,140.5,158.2,140.5,158.2,140.5z"/>
	<path class="st8" d="M158.2,134.2h-21.3c-1.3,0-2.4,1.1-2.4,2.4c0,0,0,0,0,0l0,0c0,1.3,1.1,2.4,2.4,2.4c0,0,0,0,0,0h21.3
		c1.3,0,2.4-1.1,2.4-2.4c0,0,0,0,0,0l0,0C160.6,135.3,159.5,134.2,158.2,134.2z"/>
	<rect x="162.8" y="146.8" class="st3" width="8.9" height="4.9"/>
	<rect x="162.8" y="140.5" class="st2" width="8.9" height="4.9"/>
	<rect x="162.8" y="134.2" class="st2" width="8.9" height="4.9"/>
	<rect x="173.2" y="146.8" class="st2" width="8.9" height="4.9"/>
	<rect x="173.2" y="140.5" class="st2" width="8.9" height="4.9"/>
	<rect x="173.2" y="134.2" class="st3" width="8.9" height="4.9"/>
	<path class="st8" d="M158.2,172.3h-21.3c-1.3,0-2.4,1.1-2.4,2.4l0,0c0,1.3,1.1,2.4,2.4,2.4h21.3c1.3,0,2.4-1.1,2.4-2.4l0,0
		C160.6,173.4,159.5,172.3,158.2,172.3z"/>
	<path class="st2" d="M158.2,166h-21.3c-1.3,0-2.4,1.1-2.4,2.4l0,0c0,1.3,1.1,2.4,2.4,2.4h21.3c1.3,0,2.4-1.1,2.4-2.4l0,0
		C160.6,167.1,159.5,166,158.2,166z"/>
	<path class="st8" d="M158.2,159.7h-21.3c-1.3,0-2.4,1.1-2.4,2.4l0,0c0,1.3,1.1,2.4,2.4,2.4h21.3c1.3,0,2.4-1.1,2.4-2.4l0,0
		C160.6,160.8,159.5,159.7,158.2,159.7z"/>
	<rect x="162.8" y="172.3" class="st2" width="8.9" height="4.9"/>
	<rect x="162.8" y="166" class="st3" width="8.9" height="4.9"/>
	<rect x="162.8" y="159.7" class="st2" width="8.9" height="4.9"/>
	<rect x="173.2" y="172.3" class="st3" width="8.9" height="4.9"/>
	<rect x="173.2" y="166" class="st3" width="8.9" height="4.9"/>
	<rect x="173.2" y="159.7" class="st2" width="8.9" height="4.9"/>
	<path class="st8" d="M158.2,197.8h-21.3c-1.3,0-2.4,1.1-2.4,2.4l0,0c0,1.3,1.1,2.4,2.4,2.4h21.3c1.3,0,2.4-1.1,2.4-2.4l0,0
		C160.6,198.9,159.5,197.8,158.2,197.8z"/>
	<path class="st8" d="M158.2,191.5h-21.3c-1.3,0-2.4,1.1-2.4,2.4l0,0c0,1.3,1.1,2.4,2.4,2.4h21.3c1.3,0,2.4-1.1,2.4-2.4l0,0
		C160.6,192.6,159.5,191.5,158.2,191.5z"/>
	<path class="st8" d="M158.2,185.2h-21.3c-1.3,0-2.4,1.1-2.4,2.4l0,0c0,1.3,1.1,2.4,2.4,2.4h21.3c1.3,0,2.4-1.1,2.4-2.4l0,0
		C160.6,186.3,159.5,185.2,158.2,185.2z"/>
	<rect x="162.8" y="197.8" class="st2" width="8.9" height="4.9"/>
	<rect x="162.8" y="191.5" class="st2" width="8.9" height="4.9"/>
	<rect x="162.8" y="185.2" class="st2" width="8.9" height="4.9"/>
	<rect x="173.2" y="197.8" class="st2" width="8.9" height="4.9"/>
	<rect x="173.2" y="191.5" class="st2" width="8.9" height="4.9"/>
	<rect x="173.2" y="185.2" class="st3" width="8.9" height="4.9"/>
	<path class="st0" d="M259.9,207.3h-20.4l0,0V95.4l0,0h20.4c3.1,0,5.7,2.5,5.7,5.7l0,0v100.5C265.6,204.7,263.1,207.3,259.9,207.3
		C259.9,207.3,259.9,207.3,259.9,207.3z"/>
	<path class="st7" d="M197.6,95.4h43.9c3.1,0,5.7,2.5,5.7,5.7v100.5c0,3.1-2.5,5.7-5.7,5.7h-43.9c-3.1,0-5.7-2.5-5.7-5.7V101.1
		C191.9,97.9,194.5,95.4,197.6,95.4z"/>
	<rect x="191.9" y="184.1" class="st0" width="55.3" height="1"/>
	<rect x="191.9" y="161.9" class="st0" width="55.3" height="1"/>
	<rect x="191.9" y="139.7" class="st0" width="55.3" height="1"/>
	<rect x="191.9" y="117.5" class="st0" width="55.3" height="1"/>
	<path class="st8" d="M219.5,110.4H201c-1.2,0-2.1,0.9-2.1,2.1l0,0c0,1.2,0.9,2.1,2.1,2.1h18.5c1.2,0,2.1-0.9,2.1-2.1l0,0
		C221.6,111.3,220.7,110.4,219.5,110.4z"/>
	<path class="st8" d="M219.5,104.9H201c-1.2,0-2.1,0.9-2.1,2.1l0,0c0,1.2,0.9,2.1,2.1,2.1h18.5c1.2,0,2.1-0.9,2.1-2.1l0,0
		C221.6,105.8,220.7,104.9,219.5,104.9z"/>
	<path class="st8" d="M219.5,99.4H201c-1.2,0-2.1,0.9-2.1,2.1l0,0c0,1.2,0.9,2.1,2.1,2.1h18.5c1.2,0,2.1-1,2.1-2.1l0,0
		C221.6,100.3,220.7,99.4,219.5,99.4z"/>
	<rect x="223.6" y="188.1" class="st2" width="7.7" height="4.2"/>
	<rect x="223.6" y="193.6" class="st3" width="7.7" height="4.2"/>
	<rect x="223.6" y="199.1" class="st2" width="7.7" height="4.2"/>
	<rect x="232.6" y="188.1" class="st2" width="7.7" height="4.2"/>
	<rect x="232.6" y="193.6" class="st2" width="7.7" height="4.2"/>
	<rect x="232.6" y="199.1" class="st3" width="7.7" height="4.2"/>
	<path class="st2" d="M219.5,132.5H201c-1.2,0-2.1,1-2.1,2.1l0,0c0,1.2,0.9,2.1,2.1,2.1h18.5c1.2,0,2.1-0.9,2.1-2.1l0,0
		C221.6,133.5,220.7,132.5,219.5,132.5z"/>
	<path class="st8" d="M219.5,127H201c-1.2,0-2.1,0.9-2.1,2.1l0,0c0,1.2,0.9,2.1,2.1,2.1h18.5c1.2,0,2.1-0.9,2.1-2.1l0,0
		C221.6,128,220.7,127,219.5,127z"/>
	<path class="st8" d="M219.5,121.6H201c-1.2,0-2.1,0.9-2.1,2.1l0,0c0,1.2,0.9,2.1,2.1,2.1h18.5c1.2,0,2.1-0.9,2.1-2.1l0,0
		C221.6,122.5,220.7,121.6,219.5,121.6z"/>
	<rect x="223.6" y="165.9" class="st2" width="7.7" height="4.2"/>
	<rect x="223.6" y="171.4" class="st2" width="7.7" height="4.2"/>
	<rect x="223.6" y="176.9" class="st3" width="7.7" height="4.2"/>
	<rect x="232.6" y="165.9" class="st3" width="7.7" height="4.2"/>
	<rect x="232.6" y="171.4" class="st2" width="7.7" height="4.2"/>
	<rect x="232.6" y="176.9" class="st3" width="7.7" height="4.2"/>
	<path class="st8" d="M219.5,154.7H201c-1.2,0-2.1,0.9-2.1,2.1l0,0c0,1.2,0.9,2.1,2.1,2.1h18.5c1.2,0,2.1-0.9,2.1-2.1l0,0
		C221.6,155.7,220.7,154.7,219.5,154.7z"/>
	<path class="st8" d="M219.5,149.2H201c-1.2,0-2.1,0.9-2.1,2.1l0,0c0,1.2,0.9,2.1,2.1,2.1h18.5c1.2,0,2.1-1,2.1-2.1l0,0
		C221.6,150.2,220.7,149.2,219.5,149.2z"/>
	<path class="st8" d="M219.5,143.7H201c-1.2,0-2.1,0.9-2.1,2.1l0,0c0,1.2,0.9,2.1,2.1,2.1h18.5c1.2,0,2.1-0.9,2.1-2.1l0,0
		C221.6,144.7,220.7,143.7,219.5,143.7z"/>
	<rect x="223.6" y="143.7" class="st3" width="7.7" height="4.2"/>
	<rect x="223.6" y="149.2" class="st2" width="7.7" height="4.2"/>
	<rect x="223.6" y="154.7" class="st2" width="7.7" height="4.2"/>
	<rect x="232.6" y="143.7" class="st2" width="7.7" height="4.2"/>
	<rect x="232.6" y="149.2" class="st2" width="7.7" height="4.2"/>
	<rect x="232.6" y="154.7" class="st3" width="7.7" height="4.2"/>
	<path class="st8" d="M219.5,176.9H201c-1.2,0-2.1,0.9-2.1,2.1l0,0c0,1.2,0.9,2.1,2.1,2.1h18.5c1.2,0,2.1-0.9,2.1-2.1l0,0
		C221.6,177.8,220.7,176.9,219.5,176.9z"/>
	<path class="st8" d="M219.5,171.4H201c-1.2,0-2.1,0.9-2.1,2.1l0,0c0,1.2,0.9,2.1,2.1,2.1h18.5c1.2,0,2.1-0.9,2.1-2.1l0,0
		C221.6,172.3,220.7,171.4,219.5,171.4z"/>
	<path class="st8" d="M219.5,165.9H201c-1.2,0-2.1,0.9-2.1,2.1l0,0c0,1.2,0.9,2.1,2.1,2.1h18.5c1.2,0,2.1-1,2.1-2.1l0,0
		C221.6,166.9,220.7,165.9,219.5,165.9z"/>
	<rect x="223.6" y="121.6" class="st2" width="7.7" height="4.2"/>
	<rect x="223.6" y="127" class="st3" width="7.7" height="4.2"/>
	<rect x="223.6" y="132.5" class="st2" width="7.7" height="4.2"/>
	<rect x="232.6" y="121.6" class="st3" width="7.7" height="4.2"/>
	<rect x="232.6" y="127" class="st2" width="7.7" height="4.2"/>
	<rect x="232.6" y="132.5" class="st2" width="7.7" height="4.2"/>
	<path class="st8" d="M219.5,199.1H201c-1.2,0-2.1,0.9-2.1,2.1l0,0c0,1.2,0.9,2.1,2.1,2.1h18.5c1.2,0,2.1-1,2.1-2.1l0,0
		C221.6,200,220.7,199.1,219.5,199.1z"/>
	<path class="st8" d="M219.5,193.6H201c-1.2,0-2.1,0.9-2.1,2.1l0,0c0,1.2,0.9,2.1,2.1,2.1h18.5c1.2,0,2.1-0.9,2.1-2.1l0,0
		C221.6,194.5,220.7,193.6,219.5,193.6z"/>
	<path class="st8" d="M201,188.1h18.5c1.2,0,2.1,0.9,2.1,2.1v0c0,1.2-0.9,2.1-2.1,2.1H201c-1.2,0-2.1-0.9-2.1-2.1v0
		C198.9,189,199.8,188.1,201,188.1z"/>
	<rect x="223.6" y="99.4" class="st3" width="7.7" height="4.2"/>
	<rect x="223.6" y="104.9" class="st2" width="7.7" height="4.2"/>
	<rect x="223.6" y="110.4" class="st2" width="7.7" height="4.2"/>
	<rect x="232.6" y="99.4" class="st2" width="7.7" height="4.2"/>
	<rect x="232.6" y="104.9" class="st2" width="7.7" height="4.2"/>
	<rect x="232.6" y="110.4" class="st3" width="7.7" height="4.2"/>
</g>
</svg>
