<?xml version="1.0" encoding="utf-8"?>
<!-- Generator: Adobe Illustrator 25.2.0, SVG Export Plug-In . SVG Version: 6.00 Build 0)  -->
<svg version="1.1" id="Layer_1" xmlns="http://www.w3.org/2000/svg" xmlns:xlink="http://www.w3.org/1999/xlink" x="0px" y="0px"
	 viewBox="0 0 129.7 163.2" style="enable-background:new 0 0 129.7 163.2;" xml:space="preserve">
<style type="text/css">
	.st0{fill:#6200EA;}
	.st1{opacity:0.2;enable-background:new    ;}
	.st2{opacity:0.1;enable-background:new    ;}
	.st3{fill:#FFFFFF;}
	.st4{fill:#37474F;}
</style>
<g id="freepik--Shield--inject-26">
	<path class="st0" d="M129.7,42.2c0,0-9.4,75.8-25.1,92.9c-18.7,20.5-32.2,17.4-39.8,28l0,0c-7.5-10.6-21.1-7.6-39.8-28
		C9.4,118.1,0,42.2,0,42.2C41,22.3,64.8,0,64.8,0l0,0C65.6,0.7,89.3,22.7,129.7,42.2z"/>
	<path class="st1" d="M64.8,0v163.1l0,0c-7.5-10.6-21.1-7.6-39.8-28C9.4,118.1,0,42.2,0,42.2C41,22.3,64.8,0,64.8,0L64.8,0z"/>
	<path class="st2" d="M129.7,42.2c0,0-9.4,75.8-25.1,92.9c-18.7,20.5-32.2,17.4-39.8,28V0C65.6,0.7,89.3,22.7,129.7,42.2z"/>
	<path class="st0" d="M119.6,48.3c0,0-8,64.1-21.1,78.5c-15.8,17.4-27.3,14.8-33.6,23.7c-6.4-8.9-17.8-6.4-33.6-23.7
		C18,112.4,10,48.3,10,48.3c34.7-16.8,54.8-35.7,54.8-35.7S85,31.5,119.6,48.3z"/>
	<rect x="48.4" y="72.5" class="st3" width="32.9" height="29.8"/>
	<path class="st3" d="M78,81.7h-3.3V68.4c-0.2-5.4-4.8-9.6-10.2-9.4c-5.1,0.2-9.2,4.3-9.4,9.4v13.3h-3.3V68.4
		c0.3-7.3,6.4-12.9,13.6-12.7C72.2,56,77.7,61.5,78,68.4V81.7z"/>
	<path class="st4" d="M66.2,87.8l1.4,6.5h-5.8l1.4-6.5c-1.4-0.9-1.8-2.7-0.9-4c0.9-1.4,2.7-1.8,4-0.9c1.4,0.9,1.8,2.7,0.9,4
		C66.9,87.2,66.6,87.6,66.2,87.8L66.2,87.8z"/>
</g>
</svg>
