<?xml version="1.0" encoding="utf-8"?>
<!-- Generator: Adobe Illustrator 25.2.0, SVG Export Plug-In . SVG Version: 6.00 Build 0)  -->
<svg version="1.1" id="Layer_1" xmlns="http://www.w3.org/2000/svg" xmlns:xlink="http://www.w3.org/1999/xlink" x="0px" y="0px"
	 viewBox="0 0 1600 1200" style="enable-background:new 0 0 1600 1200;" xml:space="preserve">
<style type="text/css">
	.st0{fill:#0AB7E0;}
	.st1{fill:#E16197;}
	.st2{fill:#6200EA;}
	.st3{opacity:0.1;fill:#F4F3EF;enable-background:new    ;}
	.st4{fill:#00ACC1;}
	.st5{fill:#9C27B0;}
	.st6{fill:#E91E63;}
	.st7{fill:#EF6C00;}
	.st8{fill:#FFB300;}
	.st9{fill:#8BC34A;}
</style>
<desc>Created with Sketch.</desc>
<g id="Patterns">
	<g id="Doubs">
		<g id="Shape" transform="translate(-2340.000000, -1578.000000)">
			<path class="st0" d="M3536.2,2458.8c-452.5,26.1-256.3,596.3,133.8,792.2c-345.1,0-1142-325.1-1142-722.6s38.2-789.4,383.3-789.4
				C3256.4,1739,3536.2,2061.2,3536.2,2458.8z"/>
			<path class="st1" d="M4293,1534.3c0,460.7-257,629.7-533.8,629.7S3258,1790.5,3258,1329.7S3515,700,3791.8,700
				S4293,1073.5,4293,1534.3z"/>
			<path class="st2" d="M3284.9,596c632.7,63.3,870.4,882.1,825.8,1330s-299-59.5-931.6-122.8s-528-214.9-483.5-662.7
				C2246,1235.7,2652.3,532.7,3284.9,596z"/>
			<path class="st3" d="M3589.2,1089.9c345.3,34.4,444.7,705.8,420.3,949.5s-163.2-32.4-508.4-66.8
				c-345.3-34.4-530.7-148.4-506.3-392.1C3019.1,1336.8,3243.9,1055.5,3589.2,1089.9z"/>
			<path class="st4" d="M3555,1269.7c226.6,22.6,51.9,565.3,30.5,780.2s-106.7-24.8-333.3-47.5c-226.6-22.6-544.6-112.8-523.2-327.7
				C2750.5,1459.7,3328.4,1247,3555,1269.7z"/>
			<path class="st5" d="M4043.6,2008.1c235.4,424.4-10.2,1054.3-289,1209.9s-673.3-307-871-660.9s172.4-1097.8,613.2-988.2
				C3726.9,1626.1,3928.6,1800.8,4043.6,2008.1z"/>
			<path class="st3" d="M4021.9,2619.8c12.8,292.4-90.8,499.8-260.3,594.4s-416.5-168.2-529.4-401.9
				c-240.9-498.7,83-1163.3,435.8-894.4C3884.5,2082.9,4010,2347.4,4021.9,2619.8z"/>
			<path class="st6" d="M4250.2,2477.1c12.8,292.5-124.6,579.5-260.1,594.6c-187,20.8-239.4-207.6-244.9-395.9
				c-5.6-193.3,146.2-691.8,244.9-259.2C4063,2736.2,4238.3,2204.7,4250.2,2477.1z"/>
			<path class="st7" d="M3643.2,2523c-176.8,340.7-922.1,768-1621.2,596s317.3-262.5,317.3-659.8s224.4-719.2,569-719.2
				c148.2,0,284.3,59.5,391.3,159C3520.9,2040.4,3752.3,2312.7,3643.2,2523z"/>
			<path class="st8" d="M2543.6,2608.8c-398.5,100.9-980.7,64-872.5-239.4c179-501.8,612.1-837.4,1147.8-769.8
				c210.8,26.6,412.5,191.7,512.9,345.2C3563,2298,3151.6,2455,2543.6,2608.8z"/>
			<path class="st9" d="M2417.5,1290.2c396.9,74.4,939.5,397.2,705.1,871.3c-129.9,262.9-711.5,484.5-913,394.5
				C1875.6,2406.8,1777.2,1170.2,2417.5,1290.2z"/>
			<path class="st4" d="M2706.1,2279.5c-235.4,336.2-985.7,547.7-1309.2,321.2s-97.6-805.2,137.8-1141.4
				c235.4-336.1,547.1-525.2,870.6-298.7S2941.5,1943.4,2706.1,2279.5z"/>
			<path class="st2" d="M2381.8,2335c-299.8,279.6-1015.7,396-1235.7,160s-110-804.3,189.8-1083.9
				c299.8-279.5,874.4-349.7,1094.5-113.7S2681.6,2055.4,2381.8,2335z"/>
		</g>
	</g>
</g>
</svg>
