<?xml version="1.0" encoding="utf-8"?>
<!-- Generator: Adobe Illustrator 25.1.0, SVG Export Plug-In . SVG Version: 6.00 Build 0)  -->
<svg version="1.1" id="Layer_1" xmlns="http://www.w3.org/2000/svg" xmlns:xlink="http://www.w3.org/1999/xlink" x="0px" y="0px"
	 viewBox="0 0 512 512" style="enable-background:new 0 0 512 512;" xml:space="preserve">
<style type="text/css">
	.st0{fill:#B388FF;}
	.st1{fill:#6200EA;}
</style>
<g>
	<g>
		<path class="st0" d="M189.2,445.2c0,36.8,30,66.8,66.8,66.8s66.8-30,66.8-66.8H189.2z"/>
	</g>
</g>
<g>
	<g>
		<path class="st1" d="M434.1,371V230c0-92.1-70-167.9-159.6-177.1c6.8-5.4,11.2-13.8,11.2-23.2C285.7,13.3,272.4,0,256,0
			s-29.7,13.3-29.7,29.7c0,9.4,4.4,17.8,11.2,23.2c-89.7,9.2-159.6,85-159.6,177.1v141H33.4v44.5h445.2V371L434.1,371L434.1,371z"/>
	</g>
</g>
</svg>
