<?xml version="1.0" encoding="utf-8"?>
<!-- Generator: Adobe Illustrator 25.1.0, SVG Export Plug-In . SVG Version: 6.00 Build 0)  -->
<svg version="1.1" id="Layer_1" xmlns="http://www.w3.org/2000/svg" xmlns:xlink="http://www.w3.org/1999/xlink" x="0px" y="0px"
	 viewBox="0 0 512 512" style="enable-background:new 0 0 512 512;" xml:space="preserve">
<style type="text/css">
	.st0{fill:#6200EA;}
	.st1{fill:#FFFFFF;}
	.st2{fill:#B388FF;}
</style>
<g>
	<polygon class="st0" points="466.5,292.7 404,355.2 341.5,292.7 296.1,338.2 358.6,400.7 296.1,463.2 341.5,508.7 404,446.2 
		466.5,508.7 512,463.2 449.5,400.7 512,338.2 	"/>
	<polygon class="st0" points="170.5,292.7 108,355.2 45.5,292.7 0,338.2 62.5,400.7 0,463.2 45.5,508.7 108,446.2 170.5,508.7 
		215.9,463.2 153.4,400.7 215.9,338.2 	"/>
</g>
<rect x="8" y="11.3" class="st1" width="213.2" height="213.2"/>
<path class="st2" d="M213.2,19.3v197.2H16V19.3L213.2,19.3 M229.2,3.3H0v229.2h229.2V3.3z"/>
<polygon class="st0" points="466.5,9.9 404,72.4 341.5,9.9 296.1,55.4 358.6,117.9 296.1,180.4 341.5,225.9 404,163.4 466.5,225.9 
	512,180.4 449.5,117.9 512,55.4 "/>
</svg>
