<?xml version="1.0" encoding="utf-8"?>
<!-- Generator: Adobe Illustrator 25.1.0, SVG Export Plug-In . SVG Version: 6.00 Build 0)  -->
<svg version="1.1" id="Layer_1" xmlns="http://www.w3.org/2000/svg" xmlns:xlink="http://www.w3.org/1999/xlink" x="0px" y="0px"
	 viewBox="0 0 512 512" style="enable-background:new 0 0 512 512;" xml:space="preserve">
<style type="text/css">
	.st0{fill:#B388FF;}
	.st1{fill:#6200EA;}
</style>
<circle class="st0" cx="256" cy="256" r="77.9"/>
<path class="st1" d="M512,294.4v-76.8l-78.1-7.8c-4.4-16.2-11.2-31.7-20-46l50.4-61.6l-54.3-54.2l-64,52.4
	c-13.6-7.2-28-12.5-42.9-15.9l-8.5-84.3h-77.1L209,84.5c-14.9,3.4-29.4,8.7-42.9,15.9l-64-52.4l-54.3,54.3l50.4,61.6
	c-8.9,14.3-15.6,29.8-20,46L0,217.6v76.8l78.2,7.8c4.4,16.2,11.2,31.7,20,46l-50.4,61.6l54.2,54.2l64-52.4
	c13.6,7.2,28,12.5,42.9,15.9l8.5,84.3h77.1l8.4-84.3c14.9-3.4,29.4-8.7,42.9-15.9l64,52.4l54.3-54.3l-50.4-61.6
	c8.8-14.3,15.6-29.8,20-46L512,294.4z M256,371.4c-63.8,0-115.4-51.7-115.5-115.4S192.2,140.6,256,140.5S371.4,192.2,371.4,256
	c0,0,0,0,0,0C371.4,319.8,319.8,371.4,256,371.4z"/>
</svg>
