<?xml version="1.0" encoding="utf-8"?>
<!-- Generator: Adobe Illustrator 25.0.1, SVG Export Plug-In . SVG Version: 6.00 Build 0)  -->
<svg version="1.1" id="Capa_1" xmlns="http://www.w3.org/2000/svg" xmlns:xlink="http://www.w3.org/1999/xlink" x="0px" y="0px"
	 viewBox="0 0 400 400" style="enable-background:new 0 0 400 400;" xml:space="preserve">
<style type="text/css">
	.st0{fill:#6A1B9A;}
	.st1{fill:#6200EA;}
	.st2{fill:#B388FF;}
	.st3{fill:#FFFFFF;}
</style>
<g>
	<g>
		<path class="st0" d="M200,400C89.7,400,0,310.3,0,200S89.7,0,200,0s200,89.7,200,200S310.3,400,200,400z"/>
		<circle class="st1" cx="200" cy="199.9" r="199.9"/>
	</g>
</g>
<g>
	<g>
		<path class="st0" d="M200,337.5c-75.8,0-137.5-61.7-137.5-137.5S124.2,62.5,200,62.5S337.5,124.2,337.5,200S275.8,337.5,200,337.5
			z"/>
		<circle class="st2" cx="200" cy="200" r="137.5"/>
	</g>
</g>
<g>
	<g>
		<path class="st0" d="M200,275c-41.4,0-75-33.6-75-75s33.6-75,75-75s75,33.6,75,75S241.4,275,200,275z"/>
		<circle class="st3" cx="200" cy="200" r="75"/>
	</g>
</g>
<rect x="193.8" y="158.6" class="st1" width="12.4" height="82.8"/>
<rect x="158.6" y="193.8" class="st1" width="82.8" height="12.4"/>
</svg>
