<?xml version="1.0" encoding="utf-8"?>
<!-- Generator: Adobe Illustrator 25.1.0, SVG Export Plug-In . SVG Version: 6.00 Build 0)  -->
<svg version="1.1" id="Layer_1" xmlns="http://www.w3.org/2000/svg" xmlns:xlink="http://www.w3.org/1999/xlink" x="0px" y="0px"
	 viewBox="0 0 512 512" style="enable-background:new 0 0 512 512;" xml:space="preserve">
<style type="text/css">
	.st0{fill:#B388FF;}
	.st1{fill:#6200EA;}
</style>
<path class="st0" d="M256,0h-14.9h-0.3h-1.8h-0.3l0,0h-0.3l0,0h-0.3l0,0h-0.2h-0.1h-0.2h-0.1h-0.2h-0.1h-0.2l0,0h-0.3l0,0h-0.3l0,0
	h-0.3l0,0H236l0,0h-0.3l0,0l-0.8,0.1l0,0h-0.3l0,0h-0.3l0,0H234l0,0c-5.9,0.5-11.8,1.2-17.6,2.1l2.5,15.8c12.3-1.6,24.8-2.3,37.2-2
	V0L256,0z M177.3,12.3c-12.7,4.1-25,9.2-36.9,15.2l7.2,14.3c11.2-5.7,22.7-10.4,34.6-14.3L177.3,12.3L177.3,12.3z M106.3,48.3
	c-10.8,7.8-21,16.5-30.5,25.9l11.3,11.4c8.9-8.8,18.4-16.9,28.6-24.2L106.3,48.3C106.3,48.4,106.3,48.3,106.3,48.3z M49.7,104.5
	c-2.1,2.9-4.2,5.9-6.3,8.9l0,0l-0.3,0.4l0,0L43,114l0,0l-0.1,0.1l0,0l-0.2,0.2l0,0l-0.1,0.1l0,0l-0.1,0.1l0,0l-0.1,0.1l0,0l-0.2,0.2
	l0,0l-0.1,0.1l0,0l-0.1,0.1l0,0l-0.1,0.1l0,0l-0.1,0.1l0,0l-0.1,0.1l0,0l-0.1,0.1l0,0l-0.1,0.1l0,0l-0.1,0.1l0,0l-0.1,0.1l0,0
	l-0.1,0.1l0,0l-0.1,0.1l0,0l-0.1,0.1l0,0l-0.1,0.1l0,0l-0.1,0.1l0,0l-0.1,0.1l0,0l-0.1,0.1l0,0l-0.1,0.1l0,0L41,117l0,0l-0.1,0.1
	l0,0l-0.1,0.1l0,0l-0.1,0.1l0,0l-0.1,0.1l0,0l-0.1,0.1l0,0l-0.1,0.1l0,0l-0.1,0.1l0,0l-0.1,0.1l0,0l-0.1,0.1l0,0l-0.1,0.1l0,0
	l-0.1,0.1v0l-0.1,0.1l0,0l-0.1,0.1l0,0l-0.1,0.1l0,0l-0.1,0.1l0,0l-0.1,0.1l0,0l-0.1,0.1l0,0l-0.1,0.1l0,0l-0.1,0.1v0l-0.1,0.1l0,0
	l0,0.1l0,0l-0.1,0.1l0,0l-0.1,0.1v0l0,0.1l0,0l-0.1,0.1v0l0,0.1v0l-0.1,0.1v0l-0.9,1.2v0l0,0.1v0l-0.1,0.1v0l0,0.1v0.1l0,0.1v0
	l-0.1,0.1v0l0,0.1l0,0l-0.1,0.1v0l-0.1,0.1v0l0,0.1v0l-0.1,0.1v0l0,0.1v0l-0.1,0.1v0l-0.1,0.1v0l0,0.1v0l-0.1,0.1v0l-0.1,0.1l0,0
	l-0.1,0.1v0l-0.1,0.1v0l0,0.1v0.1l-0.1,0.1v0l-0.1,0.1v0l0,0.1v0l-0.1,0.1v0l0,0.1v0.1l0,0.1v0l-0.1,0.1v0l0,0.1v0l-0.1,0.1v0l0,0.1
	v0.1l0,0.1v0l-0.1,0.1v0.1v0.1v0.1l0,0.1v0l-0.1,0.1v0l0,0.1v0l-0.1,0.1v0l-0.1,0.1v0.1l0,0.1v0l-0.1,0.1v0l0,0.1v0.1l-0.1,0.1v0
	l-0.1,0.1v0l0,0.1v0l-0.1,0.1v0l0,0.1v0.1l0,0.1v0l-0.1,0.1v0l0,0.1v0l-0.1,0.1v0l-0.1,0.1v0l0,0.1v0l-0.1,0.1v0l0,0.1v0l-0.1,0.1v0
	l-0.1,0.1v0l0,0.1l0,0l-0.1,0.1v0l-0.1,0.1l0,0l0,0.1v0l-0.1,0.1v0l0,0.1v0l-0.1,0.1v0l-0.1,0.1v0l0,0.1v0l-0.1,0.1v0l-0.1,0.1v0
	l0,0.1v0l-0.1,0.1l0,0l0,0.1l0,0l-0.1,0.1v0l-0.1,0.1v0l0,0.1l0,0l-0.1,0.1l0,0l-0.1,0.1l0,0l-0.1,0.1l0,0l-0.1,0.1l0,0l0,0.1l0,0
	l-0.1,0.1l0,0l-0.1,0.1l0,0l0,0.1l0,0L32,132l0,0l-0.1,0.1l0,0l-0.1,0.1l0,0l-0.1,0.1l0,0l-0.1,0.1l0,0l-0.1,0.1l0,0l-0.1,0.1l0,0
	l-0.1,0.1l0,0l-0.1,0.1l0,0l-0.1,0.1l0,0l-0.1,0.1l0,0l-0.1,0.1l0,0l-0.1,0.1l0,0l-0.1,0.1l0,0l-0.1,0.2l0,0l-0.1,0.1l0,0l-0.1,0.1
	l0,0l-0.1,0.1l0,0l-0.1,0.3l0,0l-0.1,0.1l0,0l-0.1,0.1l0,0l-0.1,0.1l0,0l-0.1,0.1l0,0l-0.1,0.1l0,0l-0.1,0.1l0,0l-0.1,0.3l0,0
	l-0.1,0.1l0,0l-0.1,0.1l0,0l-0.1,0.1l0,0l-0.1,0.1l0,0l-0.1,0.1l0,0l-0.1,0.1l0,0l-0.1,0.3l0,0l-0.1,0.1l0,0l-0.1,0.1l0,0l-0.1,0.1
	l0,0l-0.1,0.3l0,0l-0.1,0.1l0,0l-0.1,0.3l0,0l-0.1,0.3l14.2,7.4c5.8-11.1,12.4-21.7,19.8-31.8L49.7,104.5z M13,175.2
	c-1.3,3.9-2.5,7.9-3.6,11.9l0,0l-0.1,0.3l0,0l-0.1,0.3l0,0l-0.1,0.4l0,0l-0.1,0.3l0,0L9,188.7l0,0v0.1l0,0v0.1l0,0v0.1l0,0l-0.1,0.3
	l0,0v0.1l0,0v0.1l0,0v0.1l0,0v0.1l0,0v0.1l0,0v0.1l0,0v0.1l0,0v0.1l0,0v0.1l0,0v0.1l0,0v0.1l0,0v0.1l0,0v0.1l0,0v0.1l0,0v0.1l0,0
	v0.1v0v0.1v0v0.1l0,0v0.1v0v0.1v0.1v0.1v0.1v0.1v0v0.1v0v0.1v0.1v0.1v0.1v0.1v0.1v0.1v0.1v0.1v0.1v0.1v0.1v0.1v0.1v0.1v0.1v0.1v0.1
	v0.1v0.1v0.1v0.1v0.1v0.1v0.1v0.1v0.1v0.1v0.1v0.1v0.1v0.1v0.1v0.1v0.1v0.1v0.1v0.1v0.1v0.1v0v0.1v0.1v0.1v0v0.1v0v0.1v0.1v0.1v0
	v0.1v0v0.1v0v0.1v0v0.1v0v0.1v0.5v0.1l0,0v0.2l0,0v0.2l0,0v0.1v0v0.1v0.1v0.1l0,0v0.1l0,0l-2.5,0.3l0,0v0.2l0,0v0.1l0,0v0.2l0,0v0.1
	l0,0v0.2l0,0L6.2,200v0v0.1l0,0v0.1l0,0v0.1v0v0.1l0,0v0.1v0.1l-0.1,0.3v0v0.1v0v0.1v0v0.1l0,0v0.1l0,0v0.2v0v0.1v0v0.1v0v0.1v0.1
	v0.1v0v0.1v0v0.1v0.1v0.1v0.1v0.1v0.1v0.1v0.1v0.1v0.1v0.1v0.1v0.1v0.1v0.1v0.1v0.1v0.1v0.1v0.1v0.1v0.1v0.1v0.1v0.1v0.1v0.1v0.1
	v0.1v0.1v0.1v0.1v0v0.1v0.1v0.1v0.1v0.1v0v0.1v0v0.1v0v0.1v0v0.1l0,0v0.1v0v0.1l0,0v0.1l0,0v0.1l0,0v0.1l0,0v0.1l0,0v0.1l0,0v0.1
	l0,0v0.1l0,0v0.1l0,0v0.1l0,0v0.2l0,0v0.2l0,0l-0.1,0.3l0,0c-0.3,1.8-0.7,3.6-1,5.4l15.8,2.6c2-12.3,5-24.5,9-36.4l-15.2-5L13,175.2
	z M0,253.8v0.3l0,0v1.2l0,0v0.7l0,0v1.6l0,0v13.8v0.3v0.9l0,0v0.2v0.3v1.1v0.3l0,0v0.3v0.4v0.2v0.1v0.2l0,0v0.1v0.3v0.1v0.2v0.5v0.2
	v0.2v0.3v0.1v0.2v1.8v0.1v3.2v0.1v0.2v0.1v0.2v0.1v0.2v0.1l0,0v0.1v0.2v0.1v0.2v0.1v0.2v0.1l0,0v0.1l0,0v0.1l0,0v0.1l0,0v0.3l0,0
	v0.1l0,0v0.1l0,0v0.1l0,0v0.3l0,0v0.3l0,0v0.3l0,0c0.3,2.3,0.6,4.6,0.9,6.9l15.8-2.3c-1.1-11.7-1.4-23.5-0.8-35.2v-2L0,253.8z
	 M27,327.9l-15.3,4.8c0.6,2,1.3,4,2,6l0,0l0.4,1.2l0,0c0.3,1,0.7,2,1,3l0,0c3.3,9.2,7.2,18.2,11.5,27l14.3-7.1
	C35.4,351.4,30.7,339.8,27,327.9L27,327.9z M60.2,394.8l-13,9.2c7.7,10.8,16.2,21.1,25.5,30.6l0,0l0.1,0.1l11.5-11.2
	C75.4,414.5,67.4,404.9,60.2,394.8L60.2,394.8z M112.3,448.3l-9.6,12.8c8.1,6,16.5,11.6,25.2,16.6l0,0l0.4,0.2l0,0l0.2,0.1l0,0
	l0.2,0.1l0,0l0.2,0.1l0,0l0.1,0.1l0,0l0.1,0l0,0l0.1,0.1l0,0l0.1,0.1l0,0h0.1l0,0l0.1,0.1l0,0h0.1h0.1l0.1,0.1h0l0.1,0.1h0.1h0.1h0
	l0.1,0.1h0.1h0.1l0.1,0.1h0.1h0.1l0.1,0h0.1h0.1l0.1,0.1h0h0.1h0l0.1,0.1h0l0.1,0h0.1l0.1,0h0l0.1,0.1h0l0.1,0h0.1l0.1,0h0.1
	l0.1,0.1h0l0.1,0l0,0l0.1,0.1l0,0l0.1,0.1l0,0l0.1,0.1l0,0l0.1,0.1l0,0l0.1,0.1l0,0l0.1,0.1l0,0l0.1,0.1l0,0l0.1,0.1l0,0l0.1,0.1
	l0,0l0.1,0.1l0,0l0.1,0.1l0,0l0.1,0.1l0,0l0.1,0.1l0,0l0.1,0.1l0,0l0.1,0.1l0,0l0.1,0.1l0,0l0.1,0.1l0,0l0.3,0.1l0,0l0.1,0.1l0,0
	l0.1,0.1l0,0l0.1,0.1l0,0l0.3,0.1l0,0l0.1,0.1l0,0l0.3,0.1l0,0l0.4,0.2l0,0l8.2-13.1C133,462.5,122.4,455.8,112.3,448.3L112.3,448.3
	z M178.4,483.2l-5.2,15.1c10,3.4,20.2,6.2,30.5,8.3l0,0l0.3,0.1l0,0l0.3,0.1l0,0h0.2l0,0l0.3,0.1l0,0l0.3,0.1l0,0h0.1l0,0h0.1l0,0
	h0.1l0,0h0.1l0,0h0.1l0,0h0.1l0,0h0.1l0,0h0.1h0h0.1l0,0h0.1h0h0.1h0h0.1h0.1h0.1h0h0.1h0.3h0.1h0.1h0.1h0.1h0.1h0.1h0.1h0.1h0.1
	h0.1h0.1h0.1h0.1h0.1h0.1h0.1h0h0.1l0,0h0.1l0,0h0.2l0,0l0.3,0l0,0l0.3,0l0,0h0.2l0,0l0.3,0.1l0,0l1.8,0.3l2.7-15.8
	C202.2,489.8,190.2,486.9,178.4,483.2z M289.4,493.7c-11,1.5-22.2,2.3-33.3,2.3c-1.4,0-2.7,0-4.1,0l-0.3,16h1h22.5h0.3h0.9h0.3h0.2
	h0.3h0.4h0.3h0.1h0.3h0.1h0.3l0,0h0.4l0,0h0.4l0,0h0.3l0,0l0.8-0.1l0,0c3.8-0.4,7.5-0.8,11.2-1.3l-2.2-15.8L289.4,493.7z M360.8,472
	c-11.2,5.5-22.9,10-34.9,13.7l4.7,15.3c12.8-3.9,25.2-8.8,37.2-14.6L360.8,472z M422.1,429.3c-9,8.7-18.7,16.6-29,23.8l9.2,13.1l0,0
	l0.1,0h0l0.1-0.1h0l0.1-0.1h0.1l0.1,0h0l0.1-0.1h0l0.1,0l0.1,0l0.1,0h0.1l0.1,0l0.1-0.1h0h0.1l0.1-0.1h0.1l0.1,0l0.1-0.1h0l0.1,0
	l0.1-0.1l0.1,0h0l0.1-0.1h0.1l0.1,0h0l0.1-0.1l0,0l0.1-0.1l0,0l0.1,0l0,0l0.1-0.1l0,0l0.1,0l0,0l0.1-0.1l0,0l0.1-0.1l0,0l0.1-0.1
	l0,0l0.1-0.1l0,0l0.2-0.2l0,0l0.1-0.1l0,0l0.2-0.2l0,0l0.7-1l0,0l0.2-0.2l0,0l0.2-0.1l0,0l0.2-0.2l0,0c3.3-2.4,6.5-4.9,9.7-7.4l0,0
	l0.4-0.3l0,0l0.6-0.5l0,0l0.6-0.5l0,0l0.4-0.3l0,0l0.2-0.2l0,0l0.1-0.1l0,0l0.2-0.2l0,0l0.1-0.1l0,0l0.1-0.1l0,0l0.1-0.1l0,0
	l0.1-0.1l0,0l0.1-0.1l0,0l0.1-0.1l0,0l0.2-0.2l0,0l0.1-0.1l0,0l0.2-0.2l0,0l0.1-0.1l0,0l0.1-0.1l0,0l0.1-0.1l0,0l0.2-0.2l0,0
	l0.1-0.1l0,0l0.1,0l0,0l0.1-0.1l0,0l0.5-0.5l0,0l0.1-0.1l0,0l0.1-0.1l0,0l0.2-0.2l0,0l0.1-0.1l0,0l0.1,0l0.1,0l0.1-0.1h0l0.1-0.1
	l0,0l0.1,0l0,0l0.1-0.1h0l0,0l0.1-0.1l0.1,0l0,0l0.1-0.1l0.1,0l0,0l0.1-0.1l0,0l0.1,0l0.1,0l0.1-0.1h0l0.1-0.1l0.1-0.1l0.1,0h0
	l0.1-0.1l0,0l0.2-0.3l0.1-0.1l0.1-0.1l0,0l0.1-0.1h0l0.1,0l0.1,0l0.1-0.1h0l0.1-0.1l0.1,0l0.1-0.1h0l0.1-0.1l0,0l0.1,0l0.1,0
	l0.1-0.1h0l0.1-0.1l0,0l0.1-0.3h0l0.1-0.1h0l0.1-0.1l0,0l0.1-0.1l0,0l0.1-0.1h0l0.1-0.1h0l0.1-0.1l0,0l0.1-0.1l0,0l0.1-0.1l0,0
	l0.1-0.1l0,0l0.1-0.1l0,0l0.1-0.1l0,0l0.1-0.1l0,0l0.1-0.1l0,0l0.1-0.1l0,0l0.1-0.1l0,0l0.1-0.1l0,0l0.1-0.1l0,0l0.1-0.1l0,0
	l0.1-0.1l0,0l0.1-0.1l0,0l0.1-0.1l0,0l0.1-0.1l0,0l0.7-0.8l0,0l0.1-0.1l0,0l0.1-0.1l0,0l0.1-0.1l0,0l0.1-0.1l0,0l0.1-0.1l0,0
	l0.1-0.1l0,0l0.1-0.1l0,0l0.1-0.1l0,0l0.1-0.1l0,0l0.1-0.1l0,0l0.1-0.1l0,0l0.1-0.1l0,0l0.1-0.1l0,0l0.1-0.1l0,0l0.1-0.1l0,0
	l0.1-0.1l0,0l0.1-0.1l0,0l0.1-0.1l0,0l0.1-0.1l0,0l0.1-0.1l0,0l0.1-0.1l0,0l0.1-0.1l0,0l0.1-0.1l0,0l0.1-0.1l0,0l0.1-0.1l0,0
	l0.1-0.1l0,0l0.1-0.1l0,0l0.1-0.1l0,0l0.1-0.1l0,0l0.1-0.1l0,0l0.1-0.1l0,0l0.1-0.1l0,0l0.1-0.1l0,0l0.1-0.1l0,0l0.7-0.6l0,0
	l0.1-0.1l0,0l0.1-0.1l0,0l0.2-0.2l0,0l0.1-0.1l0,0l0.1-0.1l0,0l0.1-0.1l0,0l0.1-0.1l0,0l0.1-0.1l0,0l0.1-0.1l0,0L422,429.4
	L422.1,429.3z M467.4,369.8c-5.9,11-12.7,21.5-20.3,31.5l12.7,9.7c2.9-3.7,5.6-7.6,8.3-11.5l0,0l0.3-0.4l0,0l0.2-0.2l0,0l0.1-0.1
	l0,0l0.1-0.1l0,0l0.1-0.1l0,0l0.1-0.1l0,0l0.1-0.1l0,0l0.1-0.1l0,0l0.1-0.1l0,0l0.1-0.1l0,0l0.1-0.1l0,0l0.1-0.1l0,0l0.1-0.1v0
	l0.1-0.1v0l0-0.1v0l0.1-0.1v0l0-0.1l0-0.1V397V397l0-0.1l0-0.1v-0.1l0.1-0.1v-0.1l0-0.1v0l0.1-0.1l0,0l0.1-0.2l0,0l0.1-0.1l0,0
	l0.2-0.2l0,0l0.2-0.2l0,0c3.8-5.8,7.3-11.7,10.6-17.8l-14.1-7.6L467.4,369.8z M492.1,299.4c-2.2,12.3-5.5,24.4-9.6,36.2l15.1,5.3
	c0.7-1.9,1.3-3.8,1.9-5.7l0,0l0.1-0.3l0,0l0.1-0.3l0,0l0.1-0.2l0,0v-0.1l0,0l0-0.2l0,0l0.1-0.3l0,0l0-0.1l0,0v-0.1v0v-0.1v0v-0.1v0
	v-0.1v-0.1v-0.1v-0.1v-0.1V333V333v-0.1v-0.1v-0.1v-0.1v-0.1v-0.1v-0.1v0v-0.1v0v-0.1v0V332v0v-0.1v0v-0.1v-0.1v-0.1v0v-0.1v0v-0.1
	l0,0v-0.1v0V331l0,0v-0.1l0,0v-0.1l0,0v-0.1l0,0v-0.1l0,0v-0.1l0,0v-0.1l0,0v-0.1l0,0V330l0,0l0-0.1l0,0v-0.1l0,0l0-0.1l0,0l0.1-0.3
	l0,0l0.1-0.3l0,0l0-0.1l0,0l0-0.1l0,0l1.5-0.7l0,0l0.1-0.3l0,0l0.1-0.4l0,0l0.1-0.3l0,0l0.1-0.3l0,0c1.3-4.5,2.5-9.1,3.5-13.8l0,0
	l0.1-0.3l0,0l0.1-0.3l0,0v-0.1l0,0V312l0,0v-0.1l0,0l0.1-0.3l0,0v-0.1l0,0v-0.1l0,0v-0.1l0,0V311l0,0v-0.1l0,0v-0.1l0,0v-0.1l0,0
	v-0.1l0,0v-0.1l0,0v-0.1l0,0v-0.1l0,0V310V310v-0.1v0v-0.1v-0.4v-0.1v-0.1v-0.1v-0.1V309v-0.1v-0.1v-0.1v-0.1v-0.1v-0.1v-0.1v-0.1
	v-0.1v-0.1v-0.1v-0.1v-0.1v0v-0.1v0v-0.1v0l0.1-0.3l0,0l0.1-0.3l0,0v-0.2l0,0c0.3-1.5,0.6-3,0.9-4.5l-15.7-2.9L492.1,299.4z
	 M509.9,222.6l-15.9,2.1c1.3,10.4,2,20.8,2,31.3c0,2,0,4.1-0.1,6.1l16,0.4c0-0.6,0-1.2,0-1.9l0,0v-1.8l0,0v-0.1l0,0v-0.1l0,0v-0.1
	l0,0v-2.4l0,0V256l0,0v-7.4l0,0v-0.2l0,0v-0.5l0,0v-0.1v-0.4v-0.2l0,0v-0.3l0,0v-0.1l0,0v-0.4l0,0v-0.1l0,0v-0.4l0,0
	c-0.3-7.9-1-15.6-2-23.3L509.9,222.6z M487.4,146.2l-14.4,6.9c5.4,11.3,9.8,22.9,13.4,34.9l15.3-4.5
	C497.9,170.7,493.1,158.2,487.4,146.2L487.4,146.2z M442.4,80.5l-11.6,11c8.6,9.1,16.4,18.9,23.5,29.2l13.2-9
	c-1.1-1.6-2.2-3.2-3.3-4.7l0,0l-0.3-0.4l0,0l-0.2-0.2l0,0l-0.1-0.1l0,0l-0.1-0.1l0,0l-0.1-0.1l0,0l-0.2-0.3l0,0l-0.1-0.1l0,0
	l-0.2-0.2l0,0l-0.1-0.1v0l0-0.1v0l-0.1-0.1v0v-0.1l-0.1-0.1v-0.1v-0.1l-0.1-0.1v-0.1l0-0.1l-0.1-0.1v0l0-0.1l0-0.1l-0.1-0.1v0
	l-0.1-0.1v-0.1l0-0.1v0l-0.1-0.1v0l-0.1-0.1l0-0.1l-0.1-0.1v0l-0.1-0.1l0,0l-0.1-0.1l0,0l-0.1-0.1l0,0l-0.1-0.1l0,0l-0.1-0.1l0,0
	l-0.1-0.1l0,0l-0.1-0.1l0,0l-0.8-0.4l0,0l-0.1-0.1l0,0l-0.1-0.1l0,0l-0.1-0.1l0,0l-0.1-0.1l0,0l-0.1-0.1l0,0l-0.1-0.1l0,0l-0.2-0.2
	l0,0l-0.1-0.2l0,0l-0.2-0.2l0,0l-0.1-0.1l0,0l-0.1-0.1l0,0l-0.1-0.1l0,0l-0.2-0.2l0,0l-0.3-0.4l0,0l-0.3-0.4l0,0l-0.2-0.2l0,0
	c-2.7-3.5-5.4-6.8-8.3-10.2l0,0l-0.2-0.2l0,0l-0.3-0.3l0,0l-0.1-0.1l0,0l-0.2-0.2l0,0l-0.1-0.1l0,0l-0.1-0.1l0,0l-0.1-0.1l0,0
	l-0.1-0.1l0,0l-0.1-0.1l0,0l-0.1-0.1l0,0l-0.2-0.2l0,0l-0.1-0.1l0,0l-0.1-0.1l0,0l-0.1-0.1l0,0l-0.1-0.1l0,0l-0.1-0.1l0,0l-0.1-0.1
	l0,0l-0.1-0.1l0,0l-0.3-0.3v0l-0.1-0.1v0l-0.1-0.1v0l0-0.1l0-0.1l-0.1-0.1l0,0l-0.1-0.1l-0.1-0.1l0,0l-0.1-0.1l0-0.1l0-0.1v0
	l-0.1-0.1l0,0l-0.2-0.1l0,0l-0.1-0.1l0,0l-0.1-0.1l0,0l-0.1-0.1l0,0l-0.1-0.1l0,0l-0.2-0.2l0,0l-0.1-0.1l0,0
	C445.1,83.4,443.8,82,442.4,80.5L442.4,80.5z M379.4,31.7l-7.7,13.9c11,6,21.4,12.9,31.3,20.6l9.8-12.6l0,0l0,0l-0.1-0.1l0,0
	l-0.2-0.2l0,0l-0.1-0.1l0,0l-0.1,0l0,0l-0.1-0.1l0,0L412,53l0,0l-0.3-0.2l0,0l-0.1-0.1l0,0l-0.2-0.2l0,0l-0.2-0.2l0,0l-0.2-0.2l0,0
	l-0.3-0.2l0,0l-0.1-0.1l0,0l-0.2-0.2l0,0l-0.4-0.3l0,0c-2.6-2-5.3-3.9-7.9-5.8l0,0l-0.4-0.3l0,0l-1-0.7l0,0l-0.2-0.2l0,0l-0.2-0.1
	l0,0l-0.2-0.2l0,0l-0.1-0.1l0,0l-0.1-0.1l0,0l-0.2-0.1l0,0l-0.2-0.2l0,0l-0.1-0.1l0,0l-0.1,0l0,0l-0.1-0.1l0,0l-0.1-0.1l0,0l-0.1,0
	l0,0l-0.1-0.1l0,0l-0.2-0.2l0,0l-0.1-0.1l0,0l-0.1,0l0,0l-0.1-0.1l0,0L398,43l0,0l-0.4-0.2l0,0l-0.1-0.1l0,0l-0.2-0.1l0,0l-0.1-0.1
	l0,0l-0.1,0l0,0l-0.1-0.1l0,0l-0.1-0.1l0,0l-0.1,0l0,0l-0.1-0.1l0,0l-0.1,0h0l-0.1-0.1h0l-0.4-0.3h0l0-0.1h0l-0.1-0.1h0l-0.1-0.1
	l-0.1,0h-0.1h0l-0.1-0.1h0h-0.1l-0.1-0.3h-0.1h-0.1l-0.1,0l-0.1,0h-0.1h-0.1l-0.1-0.1h-0.1h-0.1l-0.1-0.1h-0.1h-0.1l-0.1-0.1h-0.1
	h-0.1l-0.1-0.1h-0.1l-0.1,0h0l-0.1-0.1h0l-0.1,0l-0.1,0l-0.1-0.5h0l-0.1-0.1h0l-0.1,0l-0.1,0l-0.1,0h0l-0.1-0.1h-0.1l-0.1,0h0
	l-0.1-0.2h0l-0.1,0h-0.1l-0.1,0h0l-0.1-0.1h0l-0.1,0l0-0.2h-0.1h0l-0.1-0.1h0l-0.1,0h0l-0.1-0.1h0l-0.1,0h0l-0.1,0h0l-0.1-0.1l0,0
	l-0.1,0l0,0l-0.1-0.1h0l-0.1-0.3l0,0l-0.1-0.1l0,0l-0.1-0.1h0l-0.1,0h0l-0.1-0.1h0l-0.1-0.1l0,0l-0.1,0h0l-0.1-0.1l0,0l-0.1-0.1l0,0
	l-0.1-0.1l0,0l-0.3-0.3l0,0l-0.1-0.1l0,0l-0.1-0.1l0,0l-0.1-0.1l0,0l-0.1-0.1l0,0l-0.1-0.1l0,0l-0.3-0.2l0,0l-0.1-0.1l0,0l-0.1-0.1
	l0,0l-0.1-0.1l0,0l-0.2-0.1l0,0l-0.1-0.1l0,0l-0.1-0.1l0,0l-0.1-0.1l0,0l-0.1-0.1l0,0l-0.1-0.1l0,0l-0.1-0.1l0,0l-0.1-0.1l0,0
	l-0.4-0.2l0,0l-0.1-0.1l0,0L387,36l0,0l-0.1-0.1l0,0l-0.1-0.1l0,0l-0.1-0.1l0,0l-0.3-0.2l0,0l-0.1-0.1l0,0l-0.1-0.1l0,0l-0.1-0.1
	l0,0l-0.1-0.1l0,0l-0.1-0.1l0,0l-0.3-0.2l0,0l-0.1-0.1l0,0l-0.1-0.1l0,0l-0.1-0.1l0,0l-0.1-0.1l0,0l-0.1-0.1l0,0l-0.3-0.2l0,0
	l-0.1-0.1l0,0l-0.1-0.1l0,0l-0.2-0.1l0,0l-0.1-0.1l0,0l-0.1-0.1l0,0l-0.2-0.1l0,0l-0.1-0.1l0,0l-0.1-0.1l0,0l-0.1-0.1l0,0l-0.1-0.1
	l0,0l-0.1-0.1l0,0l-0.3-0.2l0,0l-0.1,0l0,0l-0.2-0.1h0l-0.1-0.1l0,0l-0.1-0.1h0l-0.1-0.1l0,0l-0.1-0.1l0,0l-0.1-0.1l0,0l-0.1-0.1
	l0,0l-0.1,0h0l-0.1-0.1h0l-0.1,0h-0.1l-0.1,0h0l-0.2-0.2h0l-0.1,0h0l-0.1-0.1h0l-0.1,0H381l-0.1,0h0l-0.1-0.1h0l-0.1,0h-0.1l-0.1,0
	h-0.1l-0.1-0.1h-0.1h-0.1h-0.1l-0.1-0.4h0H380l-0.1,0h-0.1h-0.1l-0.1,0h-0.1h-0.1l-0.1,0h-0.1l0,0L379.4,31.7z M304.4,4.6l-3,15.7
	c12.3,2.4,24.4,5.7,36.1,9.9l5.4-15c-7-2.5-14.1-4.7-21.4-6.7l0,0l-0.8-0.2l0,0l-0.3-0.1l0,0l-0.4-0.1l0,0L319.8,8l0,0l-0.3-0.1l0,0
	h-0.1l0,0h-0.1l0,0h-0.1l0,0l-0.4-0.2l0,0h-0.1l0,0h-0.1l0,0h-0.1l0,0h-0.1l0,0h-0.1l0,0h-0.1l0,0h-0.1l0,0h-0.1l0,0h-0.1l0,0h-0.1
	l0,0h-0.1l0,0h-0.1l0,0h-0.1l0,0H317l0,0h-0.1l0,0h-0.1l0,0h-0.1h0h-0.1l0,0h-0.1h0h-0.1h-0.5h-0.1h0h-0.1h0l-0.1-0.8h0h-0.1h0h-0.1
	h0h-0.1h0h-0.1h0h-0.1h0h-0.1h-0.1h-0.1h-0.1H314h0h-0.1h0h-0.1h-0.1h-0.1h0h-0.1h-0.1h-0.1h0h-0.1H313h-0.1h-0.1h-0.1h0h-0.1h0
	h-0.1h0h-0.1h-0.1h-0.1h-0.1L312,6.1H312h-0.1h-0.1h-0.1h-0.1h-0.1h-0.1h-0.1h-0.1h-0.1h-0.1h-0.1h-0.1h-0.1h0h-0.1h0h-0.1h-0.1
	h-0.1h-0.1h-0.1h-0.1h-0.1h0H310h0h-0.1h0h-0.1h-0.1l-0.1-0.5h0h-0.1h-0.1h-0.1h0h-0.1h0H309h0h-0.1h0h-0.1l0,0h-0.1h-0.1h-0.1l0,0
	h-0.1h0L308,5.3l0,0h-0.1l0,0h-0.1l0,0h-0.1l0,0h-0.1h0l-0.3-0.2l0,0h-0.1l0,0H307h0h-0.1l0,0h-0.1l0,0L306.4,5l0,0h-0.1l0,0h-0.1
	l0,0h-0.1l0,0h-0.1l0,0h-0.1l0,0h-0.1l0,0h-0.1l0,0h-0.1l0,0h-0.1l0,0h-0.1l0,0H305l0,0L304.4,4.6L304.4,4.6L304.4,4.6z M256,0v16
	c2.7,0,5.4,0,8.2,0.1l0.5-16c-1.8,0-3.6-0.1-5.4-0.1H256z"/>
<circle class="st1" cx="256.1" cy="256" r="200.1"/>
</svg>
